<?xml version="1.0" encoding="utf-8"?>
<!-- Generator: Adobe Illustrator 19.0.0, SVG Export Plug-In . SVG Version: 6.00 Build 0)  -->
<svg version="1.1" id="Слой_1" xmlns="http://www.w3.org/2000/svg" xmlns:xlink="http://www.w3.org/1999/xlink" x="0px" y="0px"
	 viewBox="-363.5 238.3 123.5 120" style="enable-background:new -363.5 238.3 123.5 120;" xml:space="preserve">
<style type="text/css">
	.st0{fill:url(#XMLID_2_);}
	.st1{fill:#333333;stroke:#FFFFFF;stroke-width:4;stroke-miterlimit:10;}
</style>
<linearGradient id="XMLID_2_" gradientUnits="userSpaceOnUse" x1="-283.3475" y1="277.6097" x2="-285.8653" y2="248.8312" gradientTransform="matrix(1 0 0 -1 0 597.84)">
	<stop  offset="0" style="stop-color:#FFFFFF;stop-opacity:0"/>
	<stop  offset="1" style="stop-color:#000000;stop-opacity:0.5"/>
</linearGradient>
<polygon id="XMLID_909_" class="st0" points="-324.5,345.6 -240,325.3 -326.8,316.4 "/>
<path id="XMLID_1199_" class="st1" d="M-324.5,251c-19.6,0-35.5,15.9-35.5,35.5c0,29.6,32.3,59.2,35.5,59.2
	c2.5-0.1,35.5-29.6,35.5-59.2C-289,266.9-304.9,251-324.5,251z M-324.5,300.3c-7.6,0-13.8-6.2-13.8-13.8c0-7.6,6.2-13.8,13.8-13.8
	s13.8,6.2,13.8,13.8C-310.7,294.1-316.9,300.3-324.5,300.3z"/>
</svg>
