<?xml version="1.0" encoding="utf-8"?>
<!-- Generator: Adobe Illustrator 19.2.1, SVG Export Plug-In . SVG Version: 6.00 Build 0)  -->
<svg version="1.1" id="Слой_1" xmlns="http://www.w3.org/2000/svg" xmlns:xlink="http://www.w3.org/1999/xlink" x="0px" y="0px"
	 viewBox="0 0 44 44" style="enable-background:new 0 0 44 44;" xml:space="preserve">
<style type="text/css">
	.st0{fill:#fff;}
</style>
<path class="st0" d="M31.8,0L0,31.8L12.2,44L44,12.2L31.8,0z M2.4,31.8l4.3-4.3l6.1,6.1l1.2-1.2l-6.1-6.1l3.7-3.7l3.7,3.7l1.2-1.2
	l-3.7-3.7l3.7-3.7l6.1,6.1l1.2-1.2l-6.1-6.1l3.7-3.7l3.7,3.7l1.2-1.2l-3.7-3.7l3.7-3.7l6.1,6.1l1.2-1.2l-6.1-6.1l4.3-4.3l9.8,9.8
	L12.2,41.6L2.4,31.8z"/>
</svg>
