<?xml version="1.0" encoding="utf-8"?>
<!-- Generator: Adobe Illustrator 19.2.1, SVG Export Plug-In . SVG Version: 6.00 Build 0)  -->
<svg version="1.1" id="Слой_1" xmlns="http://www.w3.org/2000/svg" xmlns:xlink="http://www.w3.org/1999/xlink" x="0px" y="0px"
	 viewBox="0 0 120 120" style="enable-background:new 0 0 120 120;" xml:space="preserve">
<style type="text/css">
	.st0{fill:#fff;}
	.st1{fill:#F47A24;}
</style>
<g>
	<path class="st0" d="M80.1,54.6c3.1,0,1.5-1.5,0-1.5h-6.2v-4.6c0-1.6-0.7-3.2-2.3-3.2h-5.4v-6.2c0-1.5-1.5-1.5-1.5,0v6.2H60v-6.2
		c0-1.5-1.5-1.5-1.5,0v6.2h-4.6v-6.2c0-1.5-1.5-1.5-1.5,0v6.2h-3.9c-1.6,0-3.9,1.6-3.9,3.2v6.1h-6.2c-1.5,0,0,1.5,0,1.5h6.2v4.6
		h-6.2c-1.5,0,0,1.5,0,1.5h6.2v4.6h-6.2c-1.5,0,0,1.5,0,1.5h6.2v3.2c0,1.6,2.3,3,3.9,3h3.9v6.2c0,1.5,1.5,1.5,1.5,0v-6.2h4.6v6.2
		c0,1.5,1.5,1.5,1.5,0v-6.2h4.6v6.2c0,1.5,1.5,1.5,1.5,0v-6.2h5.4c1.6,0,2.3-1.4,2.3-3v-4.7h6.2c3.1,0,1.5-1.5,0-1.5h-6.2v-4.6h6.2
		c3.1,0,1.5-1.5,0-1.5h-6.2v-4.6H80.1z M72.4,73.1H61.6v-3c0-0.3,0,0.2,0,0l-4.6-4.6v-3.1c1.5-0.6,2.3-1.8,1.9-3.1
		c-0.2-0.9-0.7-2-2.1-2.2c-0.7,0-2.6,0.5-2.6,2.2c0,1,1.3,2.6,1.3,3.1v3.1c0,0.3,0-0.2,0,0l4.6,4.6v3H46.1V46.9h10.8v4.7
		c0,0.3-0.2,1.3,0,1.5l4.6,4.6v1.5c0,0.6-1.5,1.8-1.2,3.1c0,1.3,1.5,2.2,2.5,2.2c0.5,0,2-0.4,2-2.2c0-1.7-0.3-2.6-1.8-3.1v-1.5
		c0-0.3,0.2-1.3,0-1.5l-4.6-4.6v-4.7h13.9V73.1z"/>
	<g>
		<g>
			<path class="st1" d="M60,2c32,0,58,26,58,58s-26,58-58,58S2,92,2,60S28,2,60,2 M60,0C26.9,0,0,26.9,0,60s26.9,60,60,60
				s60-26.9,60-60S93.1,0,60,0L60,0z"/>
		</g>
	</g>
</g>
</svg>
