<?xml version="1.0" encoding="utf-8"?>
<!-- Generator: Adobe Illustrator 19.0.0, SVG Export Plug-In . SVG Version: 6.00 Build 0)  -->
<svg version="1.1" id="Слой_1" xmlns="http://www.w3.org/2000/svg" xmlns:xlink="http://www.w3.org/1999/xlink" x="0px" y="0px"
	 viewBox="-239 221 120 120" style="enable-background:new -239 221 120 120;" xml:space="preserve">
<style type="text/css">
	.st0{fill:#222222;}
	.st1{fill:#F47A24;}
	.st2{fill:#FFFFFF;}
</style>
<g>
	<path id="XMLID_9_" class="st0" d="M-145,256.9c0,18.8-28.7,38.3-34,82.3c-5.3-43.9-34-63.5-34-82.3s15.2-34,34-34
		S-145,238.1-145,256.9z"/>
	<circle id="XMLID_8_" class="st1" cx="-179" cy="256.4" r="28.5"/>
	<path class="st2" d="M-166.3,252.6l-1.9-1.5c-0.4-0.4-0.6-0.6-1.2-0.6h-3.2c-0.6,0-1.1,0.5-1.1,1.1v1.1c0,0.7,0.5,1.1,1.1,1.1h5.3
		c2.7,0,5,2.6,5.3,5.3c0.1,0.7-1,0.7-1.1,0c-0.2-2.2-2-4.2-4.2-4.2h-5.3c-1.2,0-2.1-1-2.1-2.1v-1.1c0-1.1,1-2.1,2.1-2.1h3.2
		c0.9,0,1.3,0.4,1.9,1l2.3,2.2C-164.7,253.1-165.8,253.1-166.3,252.6z M-190.5,255.9c2,0,3.6,1.6,3.6,3.7s-1.6,3.7-3.6,3.7
		s-3.6-1.6-3.6-3.7C-194.2,257.5-192.6,255.9-190.5,255.9z M-190.5,256.9c-1.5,0-2.7,1.2-2.7,2.7s1.2,2.7,2.7,2.7s2.7-1.2,2.7-2.7
		C-187.9,258.1-189.1,256.9-190.5,256.9z M-167.3,255.9c2,0,3.6,1.6,3.6,3.7s-1.6,3.7-3.6,3.7s-3.6-1.6-3.6-3.7
		C-170.9,257.5-169.3,255.9-167.3,255.9z M-167.3,256.9c-1.5,0-2.7,1.2-2.7,2.7s1.2,2.7,2.7,2.7s2.7-1.2,2.7-2.7
		S-165.8,256.9-167.3,256.9z M-185.4,260.1h12.7c0.7,0,0.7,1.1,0,1.1h-12.7C-186,261.1-186,260.1-185.4,260.1z M-185.4,252.6l3-2.2
		c0.6-0.6,1.4-1,2.3-1h2.1c1.1,0,2.1,1,2.1,2.1v1.1c0,1.1-0.9,2.1-2.1,2.1h-12.7c-2.2,0-4.1,2.1-4.3,4.3c-0.1,0.7-1,0.6-1-0.1
		c0.3-2.7,2.6-5.3,5.3-5.3h12.7c0.6,0,1.1-0.4,1.1-1.1v-1.1c0-0.6-0.5-1-1.1-1h-2.1c-0.6,0-1.2,0.2-1.6,0.6l-2.6,1.5
		C-184.8,253.1-185.8,253.1-185.4,252.6z"/>
</g>
</svg>
