<?xml version="1.0" encoding="utf-8"?>
<!-- Generator: Adobe Illustrator 19.2.1, SVG Export Plug-In . SVG Version: 6.00 Build 0)  -->
<svg version="1.1" id="Слой_1" xmlns="http://www.w3.org/2000/svg" xmlns:xlink="http://www.w3.org/1999/xlink" x="0px" y="0px"
	 viewBox="0 0 54 54" style="enable-background:new 0 0 54 54;" xml:space="preserve">
<style type="text/css">
	.st0{fill:none;}
	.st1{fill:#41A9B2;}
</style>
<g>
	<path class="st0" d="M0,0h54v54H0V0z"/>
	<g>
		<path class="st1" d="M16.3,22.5c0-6,4.8-10.8,10.8-10.8c6,0,10.8,4.8,10.8,10.8c0,17.3,4.8,16.6,4.8,16.6v3.3H31.9h-7.6H11.5v-3.3
			C11.5,39.1,16.3,39.8,16.3,22.5"/>
		<g>
			<path class="st1" d="M27.1,48c-3.1,0-5.7-2.6-5.7-5.7c0-3.1,2.6-5.7,5.7-5.7s5.7,2.6,5.7,5.7C32.8,45.5,30.2,48,27.1,48z
				 M27.1,39c-1.8,0-3.3,1.5-3.3,3.3c0,1.8,1.5,3.3,3.3,3.3c1.8,0,3.3-1.5,3.3-3.3C30.4,40.5,28.9,39,27.1,39z"/>
		</g>
		<path class="st1" d="M26.8,11.7c-0.5-0.5-0.8-0.9-1.2-1.4l-0.5-0.7c-0.1-0.2-0.3-0.5-0.4-0.7c-0.1-0.2-0.4-0.5-0.6-0.7
			c-0.2-0.2-0.2-0.5,0-0.7C24.3,7.3,24.6,7,25,6.8c0.2-0.1,0.5-0.2,0.7-0.3l0.5-0.2l0.2-0.1l0.3-0.1h0.6l0.3,0.1l0.2,0.1l0.5,0.2
			c0.3,0.1,0.5,0.2,0.7,0.3C29.6,7,29.8,7.3,30,7.5c0.2,0.2,0.2,0.5,0,0.7c-0.2,0.2-0.4,0.5-0.6,0.7c-0.1,0.2-0.3,0.5-0.4,0.7
			l-0.5,0.7c-0.4,0.5-0.7,0.9-1.2,1.4L26.8,11.7L26.8,11.7z"/>
	</g>
</g>
</svg>
