<?xml version="1.0" encoding="utf-8"?>
<!-- Generator: Adobe Illustrator 19.2.1, SVG Export Plug-In . SVG Version: 6.00 Build 0)  -->
<svg version="1.1" id="Слой_1" xmlns="http://www.w3.org/2000/svg" xmlns:xlink="http://www.w3.org/1999/xlink" x="0px" y="0px"
	 viewBox="0 0 36 36" style="enable-background:new 0 0 36 36;" xml:space="preserve">
<style type="text/css">
	.st0{fill:#ffffff;}
	.st1{fill:#F47A24;}
</style>
<path class="st0" d="M18,36L18,36C8.1,36,0,27.9,0,18v0C0,8.1,8.1,0,18,0h0c9.9,0,18,8.1,18,18v0C36,27.9,27.9,36,18,36z"/>
<path class="st1" d="M18,7.6C12.3,7.6,7.6,12.3,7.6,18c0,5.7,4.6,10.4,10.4,10.4S28.4,23.7,28.4,18C28.4,12.3,23.7,7.6,18,7.6z
	 M18,8.7c4.3,0,7.9,2.9,9,6.9c-2.8-0.9-5.9-1.4-9-1.4c-3.1,0-6.2,0.5-9,1.5C10.1,11.6,13.7,8.7,18,8.7z M18,14.6
	c3.1,0,6.3,0.5,9.1,1.5c0.1,0.6,0.2,1.2,0.2,1.9c0,0.9-0.1,1.7-0.4,2.6c-0.5-0.2-1.1-0.3-1.7-0.3c-2.9,0-5.2,2.3-5.2,5.2
	c0,0.5,0.1,1,0.2,1.5c-0.7,0.2-1.5,0.3-2.3,0.3c-0.8,0-1.5-0.1-2.3-0.3c0.2-0.5,0.2-1,0.2-1.5c0-2.9-2.3-5.2-5.2-5.2
	c-0.6,0-1.2,0.1-1.7,0.3c-0.2-0.8-0.4-1.7-0.4-2.6c0-0.6,0.1-1.3,0.2-1.9C11.7,15.1,14.9,14.6,18,14.6z M10.8,20.7
	c2.6,0,4.7,2.1,4.7,4.7c0,0.5-0.1,1-0.2,1.4c-2.9-0.9-5.1-3.1-6.1-5.9C9.7,20.8,10.2,20.7,10.8,20.7z M25.2,20.7
	c0.5,0,1.1,0.1,1.5,0.3c-1,2.8-3.2,5-6.1,5.9c-0.1-0.4-0.2-0.9-0.2-1.4C20.5,22.8,22.6,20.7,25.2,20.7z"/>
<path class="st1" d="M18,17c-1,0-1.8,0.8-1.8,1.8c0,1,0.8,1.8,1.8,1.8c1,0,1.8-0.8,1.8-1.8C19.8,17.8,19,17,18,17z M18,20.1
	c-0.7,0-1.3-0.6-1.3-1.3c0-0.7,0.6-1.3,1.3-1.3c0.7,0,1.3,0.6,1.3,1.3C19.3,19.5,18.7,20.1,18,20.1z"/>
</svg>
