<?xml version="1.0" encoding="utf-8"?>
<!-- Generator: Adobe Illustrator 19.2.1, SVG Export Plug-In . SVG Version: 6.00 Build 0)  -->
<svg version="1.1" id="Слой_1" xmlns="http://www.w3.org/2000/svg" xmlns:xlink="http://www.w3.org/1999/xlink" x="0px" y="0px"
	 viewBox="0 0 108 108" style="enable-background:new 0 0 108 108;" xml:space="preserve">
<style type="text/css">
	.st0{fill:#fff;}
	.st1{fill:#F47A24;}
</style>
<g>
	<circle class="st0" cx="54" cy="54" r="54"/>
	<g>
		<path class="st1" d="M71.2,44c0-1.6-1.3-2.9-2.9-2.9c-1.6,0-2.9,1.3-2.9,2.9c0,1.6,1.3,2.9,2.9,2.9C69.8,46.9,71.2,45.6,71.2,44z
			 M66.9,44c0-0.7,0.6-1.3,1.3-1.3c0.7,0,1.3,0.6,1.3,1.3c0,0.7-0.6,1.3-1.3,1.3C67.5,45.2,66.9,44.7,66.9,44z"/>
		<path class="st1" d="M75.1,41.3l-8.4-8.4c-1.1-1.1-2.4-1.4-3.7-1c-0.9,0.3-1.6,0.9-1.6,1L48.8,45.5c-2,2-1.1,4.3,0,5.4l1.5,1.5
			l-9.9,9.9c-0.3,0.3-0.3,0.8,0,1.2c0.2,0.2,0.4,0.2,0.6,0.2c0.2,0,0.4-0.1,0.6-0.2L52,52.9c0.3-0.3,0.3-0.8,0-1.2l-2.1-2.1
			c0,0-0.4-0.4-0.6-1c-0.3-0.7-0.1-1.4,0.6-2.1L62.5,34c0.3-0.3,1.6-1.4,3.1,0l8.4,8.4c1.4,1.4,0.2,2.8,0,3L61.4,58.1
			c-1.4,1.4-2.8,0.3-3,0L56.2,56c-0.3-0.3-0.8-0.3-1.2,0c-0.3,0.3-0.3,0.8,0,1.2l2.1,2.1c1.1,1.1,3.4,2,5.4,0l12.6-12.6
			c0.1-0.1,0.7-0.7,1-1.6C76.5,43.7,76.2,42.4,75.1,41.3z"/>
		<path class="st1" d="M40.4,70.7l-4,4h-3v-3l4-4c0.3-0.3,0.3-0.8,0-1.2c-0.3-0.3-0.8-0.3-1.2,0L32,70.7c-0.2,0.2-0.2,0.4-0.2,0.6
			v4.2c0,0.5,0.4,0.8,0.8,0.8h4.2c0.2,0,0.4-0.1,0.6-0.2l4.2-4.2c0.3-0.3,0.3-0.8,0-1.2C41.2,70.4,40.7,70.4,40.4,70.7z"/>
		<path class="st1" d="M47.2,67.9c0.4,0,0.8-0.4,0.8-0.8v-1.8l3.7-3.7h1.8c0.4,0,0.8-0.4,0.8-0.8v-2.1c0-0.5-0.4-0.8-0.8-0.8
			c-0.5,0-0.8,0.4-0.8,0.8v1.3h-1.3c-0.2,0-0.4,0.1-0.6,0.2l-4.2,4.2c-0.2,0.1-0.2,0.4-0.2,0.6v1.3h-1.3c-0.5,0-0.8,0.4-0.8,0.8
			s0.4,0.8,0.8,0.8H47.2z"/>
		<path class="st1" d="M72.4,53.6c-0.5,0-0.8,0.4-0.8,0.8c0,10-8.1,18.1-18.1,18.1c-10,0-18.1-8.1-18.1-18.1
			c0-10,8.1-18.1,18.1-18.1c0.4,0,0.8-0.4,0.8-0.8c0-0.5-0.4-0.8-0.8-0.8c-10.9,0-19.7,8.8-19.7,19.7s8.8,19.7,19.7,19.7
			c10.9,0,19.7-8.8,19.7-19.7C73.2,54,72.9,53.6,72.4,53.6z"/>
	</g>
</g>
</svg>
