<?xml version="1.0" encoding="utf-8"?>
<!-- Generator: Adobe Illustrator 19.2.1, SVG Export Plug-In . SVG Version: 6.00 Build 0)  -->
<svg version="1.1" id="Слой_1" xmlns="http://www.w3.org/2000/svg" xmlns:xlink="http://www.w3.org/1999/xlink" x="0px" y="0px"
	 viewBox="0 0 108 108" style="enable-background:new 0 0 108 108;" xml:space="preserve">
<style type="text/css">
	.st0{fill:#ffffff;}
	.st1{fill:#F47A24;}
</style>
<g>
	<circle class="st0" cx="54" cy="54" r="54"/>
	<g>
		<g>
			<path class="st1" d="M81,53h-3.9C76.4,41,67,31.6,55,30.9V27h-2v3.9C41,31.6,31.6,41,30.9,53H27v2h3.9C31.6,67,41,76.4,53,77.1
				V81h2v-3.9C67,76.4,76.4,67,77.1,55H81V53z M75.3,53h-6.9C67.7,46,62,40.3,55,39.6v-6.9C66,33.3,74.7,42,75.3,53z M53,53H41.4
				C42,47,47,42,53,41.4V53z M53,55v11.6C47,66,42,61,41.4,55H53z M55,55h11.6C66,61,61,66,55,66.6V55z M55,53V41.4
				C61,42,66,47,66.6,53H55z M53,32.7v6.9C46,40.3,40.3,46,39.6,53h-6.9C33.3,42,42,33.3,53,32.7z M32.7,55h6.9
				C40.3,62,46,67.7,53,68.4v6.9C42,74.7,33.3,66,32.7,55z M55,75.3v-6.9C62,67.7,67.7,62,68.4,55h6.9C74.7,66,66,74.7,55,75.3z"/>
		</g>
	</g>
</g>
</svg>
