<?xml version="1.0" encoding="utf-8"?>
<!-- Generator: Adobe Illustrator 19.2.1, SVG Export Plug-In . SVG Version: 6.00 Build 0)  -->
<svg version="1.1" id="Слой_1" xmlns="http://www.w3.org/2000/svg" xmlns:xlink="http://www.w3.org/1999/xlink" x="0px" y="0px"
	 viewBox="0 0 108 108" style="enable-background:new 0 0 108 108;" xml:space="preserve">
<style type="text/css">
	.st0{fill:#999999;}
</style>
<g>
	<g>
		<path class="st0" d="M28,35.8c-1.1-1.1-3.1-1.1-4.2,0c-0.6,0.5-0.9,1.3-0.9,2.1c0,0.8,0.3,1.5,0.9,2.1c0.6,0.5,1.3,0.9,2.1,0.9
			c0.8,0,1.6-0.3,2.1-0.9c0.6-0.5,0.9-1.3,0.9-2.1C28.8,37.1,28.5,36.4,28,35.8z M41.5,35.8c-0.6,0.5-0.9,1.3-0.9,2.1
			c0,0.8,0.3,1.5,0.9,2.1c0.6,0.5,1.3,0.9,2.1,0.9c0.8,0,1.5-0.3,2.1-0.9c0.6-0.5,0.9-1.3,0.9-2.1c0-0.8-0.3-1.5-0.9-2.1
			C44.6,34.7,42.7,34.7,41.5,35.8z M59.3,35.8c-0.6,0.5-0.9,1.3-0.9,2.1c0,0.8,0.3,1.5,0.9,2.1c0.6,0.5,1.3,0.9,2.1,0.9
			c0.8,0,1.5-0.3,2.1-0.9c0.6-0.5,0.9-1.3,0.9-2.1c0-0.8-0.3-1.5-0.9-2.1C62.4,34.7,60.4,34.7,59.3,35.8z M28,53.4
			c-1.1-1.1-3.1-1.1-4.2,0c-0.6,0.5-0.9,1.3-0.9,2.1c0,0.8,0.3,1.5,0.9,2.1c0.6,0.5,1.3,0.9,2.1,0.9c0.8,0,1.6-0.3,2.1-0.9
			c0.6-0.5,0.9-1.3,0.9-2.1C28.8,54.7,28.5,53.9,28,53.4z M46.6,55.4c0-0.8-0.3-1.5-0.9-2.1c-1.1-1.1-3.1-1.1-4.2,0
			c-0.6,0.5-0.9,1.3-0.9,2.1c0,0.8,0.3,1.5,0.9,2.1c0.6,0.5,1.3,0.9,2.1,0.9c0.8,0,1.5-0.3,2.1-0.9C46.3,57,46.6,56.2,46.6,55.4z
			 M23.7,70.9c-0.6,0.5-0.9,1.3-0.9,2.1c0,0.8,0.3,1.5,0.9,2.1c0.6,0.5,1.3,0.9,2.1,0.9c0.8,0,1.6-0.3,2.1-0.9
			c0.6-0.5,0.9-1.3,0.9-2.1c0-0.8-0.3-1.5-0.9-2.1C26.9,69.8,24.9,69.8,23.7,70.9z M37.7,91H25.9C18,91,8,80.8,8,73V32.1
			c0-6.3,9-15.6,15-17.5v2.9c0,2.5,0.5,5.8,3,5.8c2.5,0,3-3.4,3-5.8V15h29v2.6c0,2.5,0.5,5.8,3,5.8c2.5,0,3-3.4,3-5.8v-2.9
			c6,1.9,15,11.2,15,17.5v8.8c3,0.2,5,0.8,6,2.9V32.1c0-11.3-10-21.3-21-23.4V5.8C64,3.4,63.5,0,61,0c-2.5,0-3,3.4-3,5.8V9H29V5.8
			C29,3.4,28.5,0,26,0c-2.5,0-3,3.4-3,5.8v2.9C12,10.9,2,20.9,2,32.1V73c0,12.8,11,23,23.9,23h17.8C41,95,39,94,37.7,91z M74.7,46.7
			c-17.2,0-31.1,13.7-31.1,30.6c0,16.9,14,30.6,31.1,30.6c17.1,0,31.1-13.7,31.1-30.6C105.8,60.5,91.9,46.7,74.7,46.7z M74.7,105
			c-15.5,0-28.1-12.4-28.1-27.7c0-15.3,12.6-27.7,28.1-27.7c15.5,0,28.1,12.4,28.1,27.7C102.9,92.6,90.3,105,74.7,105z M78.5,77.5
			c0-1.8-1.5-3.3-3.4-3.3c-1.8,0-3.4,1.5-3.4,3.3c0,1.8,1.5,3.3,3.4,3.3C77,80.8,78.5,79.3,78.5,77.5z M75.1,79.4
			c-1.1,0-1.9-0.9-1.9-1.9c0-1,0.9-1.9,1.9-1.9c1.1,0,1.9,0.8,1.9,1.9C77,78.5,76.2,79.4,75.1,79.4z M88.9,61.9L78,72.7
			c-0.5,0.5-0.5,1.3,0,1.8c0.3,0.3,0.6,0.4,0.9,0.4c0.3,0,0.7-0.1,0.9-0.4l10.9-10.8c0.5-0.5,0.5-1.3,0-1.8
			C90.2,61.4,89.4,61.4,88.9,61.9z M79,80.4c-0.5-0.5-1.3-0.5-1.9,0c-0.5,0.5-0.5,1.3,0,1.8l6.3,6.2c0.3,0.3,0.6,0.4,0.9,0.4
			c0.3,0,0.7-0.1,0.9-0.4c0.5-0.5,0.5-1.3,0-1.8L79,80.4z"/>
	</g>
</g>
</svg>
