<?xml version="1.0" encoding="utf-8"?>
<!-- Generator: Adobe Illustrator 19.2.1, SVG Export Plug-In . SVG Version: 6.00 Build 0)  -->
<svg version="1.1" id="Слой_1" xmlns="http://www.w3.org/2000/svg" xmlns:xlink="http://www.w3.org/1999/xlink" x="0px" y="0px"
	 viewBox="0 0 24 24" style="enable-background:new 0 0 24 24;" xml:space="preserve">
<style type="text/css">
	.st0{fill:#ffffff;}
	.st1{fill:#F47A24;}
</style>
<g>
	<circle class="st0" cx="12" cy="12" r="12"/>
	<g>
		<g>
			<path class="st1" d="M17,9.5h-1V9c0-0.4-0.2-1-1-1c-0.8,0-1,0.6-1,1v0.5h-4V9c0-0.4-0.6-1-1-1S8,8.6,8,9v0.5H7c-0.4,0-1,0.6-1,1
				V15c0,0.4,0.6,1,1,1h10c0.4,0,1-0.6,1-1v-4.5C18,10.1,17.4,9.5,17,9.5z M14.5,9c0-0.2,0.2-0.5,0.5-0.5c0.2,0,0.5,0.2,0.5,0.5v0.5
				h-1V9z M8.5,9c0-0.2,0.3-0.5,0.5-0.5S9.5,8.8,9.5,9v0.5h-1V9z M17.5,15c0,0.1-0.4,0.5-0.5,0.5H7c-0.1,0-0.5-0.4-0.5-0.5v-4.5
				C6.5,10.4,6.9,10,7,10h1h2h4h2h1c0.1,0,0.5,0.4,0.5,0.5V15z M12.5,11L11,13h1v1.5l1.5-2h-1V11z"/>
		</g>
	</g>
</g>
</svg>
