<?xml version="1.0" encoding="utf-8"?>
<!-- Generator: Adobe Illustrator 19.2.1, SVG Export Plug-In . SVG Version: 6.00 Build 0)  -->
<svg version="1.1" id="Слой_1" xmlns="http://www.w3.org/2000/svg" xmlns:xlink="http://www.w3.org/1999/xlink" x="0px" y="0px"
	 viewBox="0 0 24 24" style="enable-background:new 0 0 24 24;" xml:space="preserve">
<style type="text/css">
	.st0{fill:#ffffff;}
	.st1{fill:#F47A24;}
</style>
<g>
	<circle class="st0" cx="12" cy="12" r="12"/>
	<g>
		<path class="st1" d="M16.8,14.7v-1.2H18v-3.1h-1.2V9.3c0-0.3-0.3-0.6-0.6-0.6H6.6C6.3,8.7,6,9,6,9.3v5.4c0,0.3,0.3,0.6,0.6,0.6
			h9.7C16.6,15.3,16.8,15,16.8,14.7z M17.6,10.8v2.3h-0.8v-2.3H17.6z M6.6,14.9c-0.1,0-0.2-0.1-0.2-0.2V9.3c0-0.1,0.1-0.2,0.2-0.2
			h9.7c0.1,0,0.2,0.1,0.2,0.2v5.4c0,0.1-0.1,0.2-0.2,0.2L6.6,14.9L6.6,14.9z"/>
		<path class="st1" d="M7,9.7v4.6h6.6V9.7H7z M13.2,10.1v3.9H12v-3.9H13.2z M11.6,10.1v3.9h-1.2v-3.9H11.6z M10.1,10.1v3.9H8.9v-3.9
			H10.1z M8.5,10.1v3.9H7.4v-3.9H8.5z"/>
	</g>
</g>
</svg>
