<?xml version="1.0" encoding="utf-8"?>
<!-- Generator: Adobe Illustrator 19.0.0, SVG Export Plug-In . SVG Version: 6.00 Build 0)  -->
<svg version="1.1" id="Слой_1" xmlns="http://www.w3.org/2000/svg" xmlns:xlink="http://www.w3.org/1999/xlink" x="0px" y="0px"
	 viewBox="0 0 108 108" style="enable-background:new 0 0 108 108;" xml:space="preserve">
<style type="text/css">
	.st0{fill:#BC2132;}
	.st1{fill:#FFFFFF;}
</style>
<g>
	<circle id="XMLID_8_" class="st0" cx="54" cy="54" r="54"/>
	<path class="st1" d="M79.3,46.5l-3.9-3c-0.8-0.9-1.2-1.3-2.5-1.3h-6.3c-1.2,0-2.1,0.9-2.1,2.1v2.1c0,1.4,1,2.1,2.1,2.1h10.5
		c5.4,0,10,5.3,10.5,10.7c0.1,1.3-2,1.3-2.1,0c-0.5-4.4-4-8.5-8.4-8.6H66.6c-2.3,0-4.2-2-4.2-4.3v-2.1c0-2.3,2-4.3,4.2-4.3H73
		c1.8,0,2.7,0.8,3.9,2l4.6,4.4C82.3,47.5,80.2,47.5,79.3,46.5z M31.1,53.1c4,0,7.2,3.3,7.2,7.4s-3.2,7.4-7.2,7.4
		c-4,0-7.2-3.3-7.2-7.4C23.9,56.4,27.1,53.1,31.1,53.1z M31.1,55.1c-2.9,0-5.3,2.4-5.3,5.4c0,3,2.4,5.4,5.3,5.4
		c2.9,0,5.3-2.4,5.3-5.4C36.4,57.5,34,55.1,31.1,55.1z M77.2,53.1c4,0,7.2,3.3,7.2,7.4s-3.2,7.4-7.2,7.4c-4,0-7.2-3.3-7.2-7.4
		C70,56.4,73.2,53.1,77.2,53.1z M77.2,55.1c-2.9,0-5.3,2.4-5.3,5.4c0,3,2.4,5.4,5.3,5.4c2.9,0,5.3-2.4,5.3-5.4
		C82.5,57.5,80.1,55.1,77.2,55.1z M41.3,61.5h25.3c1.3,0,1.3,2.1,0,2.1H41.3C40,63.6,40,61.5,41.3,61.5z M41.3,46.5l6-4.4
		c1.2-1.2,2.8-2,4.6-2h4.2c2.2,0,4.2,2,4.2,4.3v2.1c0,2.3-1.9,4.3-4.2,4.3H30.8c-4.4,0-8.1,4.3-8.6,8.7c-0.1,1.3-2.1,1.1-1.9-0.2
		c0.6-5.4,5.1-10.6,10.5-10.6h25.3c1.1,0,2.1-0.8,2.1-2.1l0-2.3c0-1.2-1-2-2.1-2h-4.2c-1.3,0-2.4,0.4-3.2,1.3l-5.2,3
		C42.5,47.5,40.4,47.5,41.3,46.5z"/>
</g>
</svg>
