<?xml version="1.0" encoding="utf-8"?>
<!-- Generator: Adobe Illustrator 19.2.1, SVG Export Plug-In . SVG Version: 6.00 Build 0)  -->
<svg version="1.1" id="Слой_1" xmlns="http://www.w3.org/2000/svg" xmlns:xlink="http://www.w3.org/1999/xlink" x="0px" y="0px"
	 viewBox="0 0 44 44" style="enable-background:new 0 0 44 44;" xml:space="preserve">
<style type="text/css">
	.st0{fill:#fff;}
</style>
<path class="st0" d="M25.7,10.6c1.4-1.1,2.2-2.8,2.2-4.6C27.9,2.7,25.3,0,22,0s-5.9,2.7-5.9,5.9c0,1.9,0.9,3.6,2.2,4.6
	C10.7,12.2,5.1,19,5.1,27.1C5.1,36.4,12.7,44,22,44c9.3,0,16.9-7.6,16.9-16.9C38.9,19,33.3,12.2,25.7,10.6z M17.8,5.9
	c0-2.3,1.9-4.2,4.2-4.2c2.3,0,4.2,1.9,4.2,4.2c0,2.3-1.9,4.2-4.2,4.2c0,0,0,0,0,0c0,0,0,0,0,0C19.7,10.1,17.8,8.2,17.8,5.9z
	 M22,42.3c-8.4,0-15.2-6.8-15.2-15.2c0-8.4,6.8-15.2,15.2-15.2c0,0,0,0,0,0c0,0,0,0,0,0c8.4,0,15.2,6.8,15.2,15.2
	C37.2,35.5,30.4,42.3,22,42.3z M24.7,22.3c-0.8-0.5-1.8-0.7-2.7-0.7c-1.4,0-2.8,0.5-3.9,1.6c-1.8,1.8-2.1,4.5-0.9,6.6l-4,6.1l6.2-4
	c0.8,0.4,1.7,0.6,2.6,0.6c1.4,0,2.8-0.5,3.9-1.6c1.7-1.7,2.1-4.4,1-6.4l4.1-6.3L24.7,22.3z M24.7,29.8C24,30.5,23,30.9,22,30.9
	c-1,0-2-0.4-2.7-1.1c-0.7-0.7-1.1-1.7-1.1-2.7c0-1,0.4-2,1.1-2.7c0.7-0.7,1.7-1.1,2.7-1.1c1,0,2,0.4,2.7,1.1
	c0.7,0.7,1.1,1.7,1.1,2.7C25.8,28.1,25.4,29.1,24.7,29.8z"/>
</svg>
