<?xml version="1.0" encoding="utf-8"?>
<!-- Generator: Adobe Illustrator 19.2.1, SVG Export Plug-In . SVG Version: 6.00 Build 0)  -->
<svg version="1.1" id="Слой_1" xmlns="http://www.w3.org/2000/svg" xmlns:xlink="http://www.w3.org/1999/xlink" x="0px" y="0px"
	 viewBox="0 0 60 60" style="enable-background:new 0 0 60 60;" xml:space="preserve">
<style type="text/css">
	.st0{fill:#fff;}
	.st1{fill:#F47A24;}
	.st2{fill:none;stroke:#F47A24;stroke-miterlimit:10;}
</style>
<g>
	<circle class="st0" cx="30" cy="30" r="30"/>
	<g>
		<g>
			<path class="st1" d="M17.7,17.1c0.1,0,0.2-0.1,0.3-0.2c0.4-0.6,0.9-1.1,1.3-1.6c0.1-0.1,0.2-0.4,0-0.5c-0.1-0.1-0.4-0.1-0.5,0
				c-0.5,0.5-1,1-1.4,1.7c-0.1,0.2-0.1,0.4,0.1,0.5C17.6,17.1,17.7,17.1,17.7,17.1z M26.1,16.1l0.1,0.1c0.1,0.1,0.2,0.1,0.3,0.1
				c0.1,0,0.2,0,0.2-0.1c0.1-0.1,0.2-0.4,0-0.5l-0.1-0.1c-0.5-0.5-0.9-1-1.4-1.4c-0.2-0.1-0.4-0.1-0.5,0c-0.1,0.2-0.1,0.4,0,0.5
				C25.1,15.1,25.6,15.6,26.1,16.1z M30.4,26.8c0.4,0.1,1,0.5,1.5,1.1C31.9,28,32,28,32.1,28c0.1,0,0.2,0,0.2-0.1
				c0.2-0.1,0.2-0.4,0-0.5c-0.7-0.8-1.3-1.2-2-1.3c-0.2,0-0.4,0.1-0.4,0.3C30,26.6,30.2,26.8,30.4,26.8z M29.6,19c0.1,0,0.1,0,0.2,0
				c0.1,0,0.3-0.1,0.3-0.2c0.1-0.2,0-0.4-0.2-0.5c-0.6-0.3-1.1-0.7-1.7-1.2c-0.1-0.1-0.4-0.1-0.5,0c-0.1,0.1-0.1,0.4,0,0.5
				C28.3,18.3,28.9,18.7,29.6,19z M22.2,29.9c0.1,0.1,0.2,0.2,0.3,0.2c0,0,0.1,0,0.1,0c0.6-0.2,1.2-0.5,2-0.9
				c0.2-0.1,0.2-0.3,0.2-0.5c-0.1-0.2-0.3-0.2-0.5-0.2c-0.8,0.4-1.4,0.7-1.9,0.9C22.2,29.5,22.1,29.7,22.2,29.9z M18.5,30
				c-0.2-0.1-0.4,0-0.5,0.2c-0.1,0.2,0,0.4,0.2,0.5c0.4,0.1,0.8,0.2,1.3,0.2c0.3,0,0.7,0,1-0.1c0.2,0,0.3-0.2,0.3-0.4
				c0-0.2-0.2-0.3-0.4-0.3C19.6,30.2,19,30.2,18.5,30z M20.9,14.3c0,0,0.1,0,0.1-0.1c0.5-0.2,1.1-0.4,1.6-0.4h0c0.1,0,0.2,0,0.3,0
				c0.2,0,0.4-0.1,0.4-0.3c0-0.2-0.1-0.4-0.3-0.4c-0.1,0-0.3,0-0.4,0c-0.6,0-1.2,0.1-1.9,0.4c-0.2,0.1-0.3,0.3-0.2,0.5
				C20.6,14.2,20.8,14.3,20.9,14.3z M28.2,26.6c-0.6,0.3-1.3,0.6-2,0.9c-0.2,0.1-0.2,0.3-0.2,0.5c0.1,0.1,0.2,0.2,0.3,0.2
				c0.1,0,0.1,0,0.2,0c0.6-0.3,1.3-0.7,1.9-0.9c0.2-0.1,0.3-0.3,0.2-0.5C28.6,26.6,28.4,26.5,28.2,26.6z M42.9,30.7
				C43,30.8,43,30.8,42.9,30.7c0.3,0,0.4-0.1,0.4-0.3c0.1-0.4,0.2-0.8,0.3-1.2c0-0.2-0.1-0.4-0.3-0.4c-0.2,0-0.4,0.1-0.4,0.3
				c-0.1,0.4-0.2,0.8-0.3,1.2C42.6,30.5,42.7,30.7,42.9,30.7z M44.1,24.7c-0.2,0-0.4,0.1-0.4,0.3c-0.1,0.6-0.2,1.3-0.3,2.1
				c0,0.2,0.1,0.4,0.3,0.4c0,0,0,0,0.1,0c0.2,0,0.3-0.1,0.4-0.3c0.1-0.8,0.2-1.5,0.3-2.1C44.4,24.9,44.3,24.7,44.1,24.7z M34,33.3
				c-0.2,0-0.4,0.1-0.4,0.3c-0.1,0.7-0.4,1.3-0.8,1.8c-0.1,0.2-0.1,0.4,0.1,0.5c0.1,0,0.1,0.1,0.2,0.1c0.1,0,0.2-0.1,0.3-0.1
				c0.5-0.6,0.8-1.3,0.9-2.1C34.3,33.5,34.2,33.3,34,33.3z M40.3,19c0.8,0,1.4,0.2,1.9,0.5c0.1,0,0.1,0.1,0.2,0.1
				c0.1,0,0.2-0.1,0.3-0.2c0.1-0.2,0-0.4-0.1-0.5c-0.6-0.4-1.3-0.6-2.2-0.6c-0.2,0-0.4,0.1-0.4,0.3C40,18.8,40.2,19,40.3,19z
				 M33.1,29.2c-0.2,0.1-0.3,0.3-0.2,0.5c0.3,0.6,0.5,1.3,0.6,1.9c0,0.2,0.2,0.3,0.4,0.3c0,0,0,0,0.1,0c0.2,0,0.3-0.2,0.3-0.4
				c-0.1-0.7-0.3-1.4-0.7-2.1C33.5,29.2,33.3,29.1,33.1,29.2z M33.9,19c-0.6,0.1-1.1,0.1-1.6,0c-0.2,0-0.3,0-0.5-0.1
				c-0.2,0-0.4,0.1-0.4,0.3c0,0.2,0.1,0.4,0.3,0.4c0.2,0,0.3,0.1,0.5,0.1c0.2,0,0.5,0,0.7,0c0.3,0,0.6,0,1,0c0.2,0,0.3-0.2,0.3-0.4
				C34.3,19.1,34.1,19,33.9,19z M43.8,22.8c0,0.2,0.2,0.3,0.4,0.3h0c0.2,0,0.4-0.1,0.3-0.3c0-0.9-0.2-1.5-0.4-2.1
				c-0.1-0.2-0.3-0.3-0.5-0.2c-0.2,0.1-0.3,0.3-0.2,0.4C43.6,21.4,43.7,22.1,43.8,22.8z M28.8,45.5c-0.7,0-1.5-0.1-2.1-0.2
				c-0.2,0-0.4,0.1-0.4,0.3c0,0.2,0.1,0.4,0.3,0.4c0.7,0.1,1.4,0.1,2.2,0.2c0,0,0,0,0,0c0.2,0,0.3-0.1,0.4-0.3
				C29.2,45.7,29,45.5,28.8,45.5z M27.8,38.2c0-0.2-0.2-0.3-0.4-0.3c-0.7,0.1-1.4,0.1-2.1,0.1c-0.2,0-0.4,0.2-0.4,0.4
				c0,0.2,0.2,0.3,0.4,0.3h0c0.8,0,1.5-0.1,2.2-0.1C27.7,38.6,27.8,38.4,27.8,38.2z M31.8,36.8c-0.1-0.2-0.3-0.2-0.5-0.1
				c-0.5,0.3-1.2,0.6-1.9,0.8c-0.2,0.1-0.3,0.3-0.2,0.4c0,0.2,0.2,0.3,0.3,0.3c0,0,0.1,0,0.1,0c0.8-0.2,1.5-0.5,2.1-0.9
				C31.9,37.2,31.9,37,31.8,36.8z M36.1,19.4C36.1,19.4,36.1,19.4,36.1,19.4l0.4-0.1c0.6-0.1,1.2-0.2,1.8-0.3c0.2,0,0.3-0.2,0.3-0.4
				c0-0.2-0.2-0.3-0.4-0.3c-0.6,0.1-1.2,0.2-1.8,0.3L36,18.7c-0.2,0-0.3,0.2-0.3,0.4C35.8,19.3,35.9,19.4,36.1,19.4z M33.1,45.9
				c-0.7,0-1.5-0.1-2.1-0.2c-0.2,0-0.4,0.1-0.4,0.3c0,0.2,0.1,0.4,0.3,0.4c0.7,0.1,1.4,0.1,2.2,0.2c0,0,0,0,0,0
				c0.2,0,0.3-0.1,0.4-0.3C33.5,46,33.3,45.9,33.1,45.9z M24.5,45.2c-0.8-0.1-1.5-0.2-2.1-0.3c-0.2,0-0.4,0.1-0.4,0.3
				c0,0.2,0.1,0.4,0.3,0.4c0.7,0.1,1.4,0.2,2.2,0.3c0,0,0,0,0,0c0.2,0,0.3-0.1,0.4-0.3C24.9,45.3,24.7,45.2,24.5,45.2z M15.8,26.6
				c-0.2,0.1-0.3,0.3-0.2,0.4c0.2,0.7,0.5,1.4,0.9,2c0.1,0.1,0.2,0.2,0.3,0.2c0.1,0,0.1,0,0.2-0.1c0.2-0.1,0.2-0.3,0.1-0.5
				c-0.3-0.6-0.6-1.2-0.8-1.9C16.2,26.7,16,26.6,15.8,26.6z M15.7,42c0-0.1,0-0.2,0.1-0.3c0.1-0.2,0-0.4-0.2-0.5
				c-0.2-0.1-0.4,0-0.5,0.2C15,41.6,15,41.8,15,42c0,0.6,0.3,1.2,1,1.6c0.1,0,0.1,0.1,0.2,0.1c0.1,0,0.2,0,0.3-0.1
				c0.1-0.2,0.1-0.4-0.1-0.5C16,42.7,15.7,42.3,15.7,42z M15.5,25.2C15.5,25.2,15.5,25.2,15.5,25.2c0.2,0,0.4-0.2,0.4-0.4
				c0-0.3,0-0.5,0-0.8c0-0.4,0-0.8,0.1-1.3c0-0.2-0.1-0.4-0.3-0.4c-0.2,0-0.4,0.1-0.4,0.3c0,0.4-0.1,0.9-0.1,1.3c0,0.3,0,0.6,0,0.9
				C15.2,25.1,15.3,25.2,15.5,25.2z M23.5,38.4c0-0.2-0.1-0.4-0.3-0.4c-0.7,0-1.4,0-2.2,0.2c-0.2,0-0.3,0.2-0.3,0.4
				c0,0.2,0.2,0.3,0.4,0.3c0,0,0,0,0.1,0c0.7-0.1,1.4-0.2,2.1-0.2C23.3,38.8,23.5,38.6,23.5,38.4z M15.9,21C15.9,21,15.9,21,15.9,21
				c0.3,0,0.4-0.1,0.4-0.2c0.2-0.7,0.4-1.3,0.7-2c0.1-0.2,0-0.4-0.2-0.5c-0.2-0.1-0.4,0-0.5,0.2c-0.3,0.7-0.6,1.4-0.7,2.1
				C15.6,20.7,15.7,20.9,15.9,21z M19.2,39c-0.1-0.2-0.3-0.3-0.5-0.2c-0.8,0.3-1.5,0.6-2,0.9c-0.2,0.1-0.2,0.3-0.1,0.5
				c0.1,0.1,0.2,0.2,0.3,0.2c0.1,0,0.1,0,0.2-0.1c0.5-0.3,1.2-0.6,1.9-0.9C19.2,39.4,19.3,39.2,19.2,39z M20.3,44.5
				c-0.8-0.2-1.5-0.4-2-0.6c-0.2-0.1-0.4,0-0.5,0.2c-0.1,0.2,0,0.4,0.2,0.5c0.6,0.2,1.3,0.4,2.1,0.6c0,0,0.1,0,0.1,0
				c0.2,0,0.3-0.1,0.4-0.3C20.6,44.7,20.5,44.5,20.3,44.5z M44.9,31.9c-0.2-0.4-0.6-0.5-1-0.3l-1.8,0.8l-0.9-1.8
				c-0.2-0.4-0.6-0.5-1-0.3c-0.4,0.2-0.5,0.6-0.3,0.9l0.9,1.8l-1.8,0.8c-0.4,0.2-0.5,0.6-0.3,0.9c0.2,0.4,0.6,0.5,1,0.3l1.8-0.8
				l0.9,1.8c0.1,0.3,0.4,0.4,0.6,0.4c0.1,0,0.2,0,0.3-0.1c0.4-0.2,0.5-0.6,0.3-0.9l-0.9-1.8l1.8-0.8C45,32.7,45.1,32.3,44.9,31.9z
				 M39,43.4l-1.7,1.7l-1.7-1.7c-0.3-0.3-0.6-0.3-0.9,0c-0.3,0.3-0.3,0.6,0,0.9l1.7,1.7l0.9,0.9l0.9-0.9l1.7-1.7
				c0.3-0.3,0.3-0.6,0-0.9C39.6,43.1,39.3,43.1,39,43.4z"/>
		</g>
		<g>
			<path class="st2" d="M17.7,17.1c0.1,0,0.2-0.1,0.3-0.2c0.4-0.6,0.9-1.1,1.3-1.6c0.1-0.1,0.2-0.4,0-0.5c-0.1-0.1-0.4-0.1-0.5,0
				c-0.5,0.5-1,1-1.4,1.7c-0.1,0.2-0.1,0.4,0.1,0.5C17.6,17.1,17.7,17.1,17.7,17.1z M26.1,16.1l0.1,0.1c0.1,0.1,0.2,0.1,0.3,0.1
				c0.1,0,0.2,0,0.2-0.1c0.1-0.1,0.2-0.4,0-0.5l-0.1-0.1c-0.5-0.5-0.9-1-1.4-1.4c-0.2-0.1-0.4-0.1-0.5,0c-0.1,0.2-0.1,0.4,0,0.5
				C25.1,15.1,25.6,15.6,26.1,16.1z M30.4,26.8c0.4,0.1,1,0.5,1.5,1.1C31.9,28,32,28,32.1,28c0.1,0,0.2,0,0.2-0.1
				c0.2-0.1,0.2-0.4,0-0.5c-0.7-0.8-1.3-1.2-2-1.3c-0.2,0-0.4,0.1-0.4,0.3C30,26.6,30.2,26.8,30.4,26.8z M29.6,19c0.1,0,0.1,0,0.2,0
				c0.1,0,0.3-0.1,0.3-0.2c0.1-0.2,0-0.4-0.2-0.5c-0.6-0.3-1.1-0.7-1.7-1.2c-0.1-0.1-0.4-0.1-0.5,0c-0.1,0.1-0.1,0.4,0,0.5
				C28.3,18.3,28.9,18.7,29.6,19z M22.2,29.9c0.1,0.1,0.2,0.2,0.3,0.2c0,0,0.1,0,0.1,0c0.6-0.2,1.2-0.5,2-0.9
				c0.2-0.1,0.2-0.3,0.2-0.5c-0.1-0.2-0.3-0.2-0.5-0.2c-0.8,0.4-1.4,0.7-1.9,0.9C22.2,29.5,22.1,29.7,22.2,29.9z M18.5,30
				c-0.2-0.1-0.4,0-0.5,0.2c-0.1,0.2,0,0.4,0.2,0.5c0.4,0.1,0.8,0.2,1.3,0.2c0.3,0,0.7,0,1-0.1c0.2,0,0.3-0.2,0.3-0.4
				c0-0.2-0.2-0.3-0.4-0.3C19.6,30.2,19,30.2,18.5,30z M20.9,14.3c0,0,0.1,0,0.1-0.1c0.5-0.2,1.1-0.4,1.6-0.4h0c0.1,0,0.2,0,0.3,0
				c0.2,0,0.4-0.1,0.4-0.3c0-0.2-0.1-0.4-0.3-0.4c-0.1,0-0.3,0-0.4,0c-0.6,0-1.2,0.1-1.9,0.4c-0.2,0.1-0.3,0.3-0.2,0.5
				C20.6,14.2,20.8,14.3,20.9,14.3z M28.2,26.6c-0.6,0.3-1.3,0.6-2,0.9c-0.2,0.1-0.2,0.3-0.2,0.5c0.1,0.1,0.2,0.2,0.3,0.2
				c0.1,0,0.1,0,0.2,0c0.6-0.3,1.3-0.7,1.9-0.9c0.2-0.1,0.3-0.3,0.2-0.5C28.6,26.6,28.4,26.5,28.2,26.6z M42.9,30.7
				C43,30.8,43,30.8,42.9,30.7c0.3,0,0.4-0.1,0.4-0.3c0.1-0.4,0.2-0.8,0.3-1.2c0-0.2-0.1-0.4-0.3-0.4c-0.2,0-0.4,0.1-0.4,0.3
				c-0.1,0.4-0.2,0.8-0.3,1.2C42.6,30.5,42.7,30.7,42.9,30.7z M44.1,24.7c-0.2,0-0.4,0.1-0.4,0.3c-0.1,0.6-0.2,1.3-0.3,2.1
				c0,0.2,0.1,0.4,0.3,0.4c0,0,0,0,0.1,0c0.2,0,0.3-0.1,0.4-0.3c0.1-0.8,0.2-1.5,0.3-2.1C44.4,24.9,44.3,24.7,44.1,24.7z M34,33.3
				c-0.2,0-0.4,0.1-0.4,0.3c-0.1,0.7-0.4,1.3-0.8,1.8c-0.1,0.2-0.1,0.4,0.1,0.5c0.1,0,0.1,0.1,0.2,0.1c0.1,0,0.2-0.1,0.3-0.1
				c0.5-0.6,0.8-1.3,0.9-2.1C34.3,33.5,34.2,33.3,34,33.3z M40.3,19c0.8,0,1.4,0.2,1.9,0.5c0.1,0,0.1,0.1,0.2,0.1
				c0.1,0,0.2-0.1,0.3-0.2c0.1-0.2,0-0.4-0.1-0.5c-0.6-0.4-1.3-0.6-2.2-0.6c-0.2,0-0.4,0.1-0.4,0.3C40,18.8,40.2,19,40.3,19z
				 M33.1,29.2c-0.2,0.1-0.3,0.3-0.2,0.5c0.3,0.6,0.5,1.3,0.6,1.9c0,0.2,0.2,0.3,0.4,0.3c0,0,0,0,0.1,0c0.2,0,0.3-0.2,0.3-0.4
				c-0.1-0.7-0.3-1.4-0.7-2.1C33.5,29.2,33.3,29.1,33.1,29.2z M33.9,19c-0.6,0.1-1.1,0.1-1.6,0c-0.2,0-0.3,0-0.5-0.1
				c-0.2,0-0.4,0.1-0.4,0.3c0,0.2,0.1,0.4,0.3,0.4c0.2,0,0.3,0.1,0.5,0.1c0.2,0,0.5,0,0.7,0c0.3,0,0.6,0,1,0c0.2,0,0.3-0.2,0.3-0.4
				C34.3,19.1,34.1,19,33.9,19z M43.8,22.8c0,0.2,0.2,0.3,0.4,0.3h0c0.2,0,0.4-0.1,0.3-0.3c0-0.9-0.2-1.5-0.4-2.1
				c-0.1-0.2-0.3-0.3-0.5-0.2c-0.2,0.1-0.3,0.3-0.2,0.4C43.6,21.4,43.7,22.1,43.8,22.8z M28.8,45.5c-0.7,0-1.5-0.1-2.1-0.2
				c-0.2,0-0.4,0.1-0.4,0.3c0,0.2,0.1,0.4,0.3,0.4c0.7,0.1,1.4,0.1,2.2,0.2c0,0,0,0,0,0c0.2,0,0.3-0.1,0.4-0.3
				C29.2,45.7,29,45.5,28.8,45.5z M27.8,38.2c0-0.2-0.2-0.3-0.4-0.3c-0.7,0.1-1.4,0.1-2.1,0.1c-0.2,0-0.4,0.2-0.4,0.4
				c0,0.2,0.2,0.3,0.4,0.3h0c0.8,0,1.5-0.1,2.2-0.1C27.7,38.6,27.8,38.4,27.8,38.2z M31.8,36.8c-0.1-0.2-0.3-0.2-0.5-0.1
				c-0.5,0.3-1.2,0.6-1.9,0.8c-0.2,0.1-0.3,0.3-0.2,0.4c0,0.2,0.2,0.3,0.3,0.3c0,0,0.1,0,0.1,0c0.8-0.2,1.5-0.5,2.1-0.9
				C31.9,37.2,31.9,37,31.8,36.8z M36.1,19.4C36.1,19.4,36.1,19.4,36.1,19.4l0.4-0.1c0.6-0.1,1.2-0.2,1.8-0.3c0.2,0,0.3-0.2,0.3-0.4
				c0-0.2-0.2-0.3-0.4-0.3c-0.6,0.1-1.2,0.2-1.8,0.3L36,18.7c-0.2,0-0.3,0.2-0.3,0.4C35.8,19.3,35.9,19.4,36.1,19.4z M33.1,45.9
				c-0.7,0-1.5-0.1-2.1-0.2c-0.2,0-0.4,0.1-0.4,0.3c0,0.2,0.1,0.4,0.3,0.4c0.7,0.1,1.4,0.1,2.2,0.2c0,0,0,0,0,0
				c0.2,0,0.3-0.1,0.4-0.3C33.5,46,33.3,45.9,33.1,45.9z M24.5,45.2c-0.8-0.1-1.5-0.2-2.1-0.3c-0.2,0-0.4,0.1-0.4,0.3
				c0,0.2,0.1,0.4,0.3,0.4c0.7,0.1,1.4,0.2,2.2,0.3c0,0,0,0,0,0c0.2,0,0.3-0.1,0.4-0.3C24.9,45.3,24.7,45.2,24.5,45.2z M15.8,26.6
				c-0.2,0.1-0.3,0.3-0.2,0.4c0.2,0.7,0.5,1.4,0.9,2c0.1,0.1,0.2,0.2,0.3,0.2c0.1,0,0.1,0,0.2-0.1c0.2-0.1,0.2-0.3,0.1-0.5
				c-0.3-0.6-0.6-1.2-0.8-1.9C16.2,26.7,16,26.6,15.8,26.6z M15.7,42c0-0.1,0-0.2,0.1-0.3c0.1-0.2,0-0.4-0.2-0.5
				c-0.2-0.1-0.4,0-0.5,0.2C15,41.6,15,41.8,15,42c0,0.6,0.3,1.2,1,1.6c0.1,0,0.1,0.1,0.2,0.1c0.1,0,0.2,0,0.3-0.1
				c0.1-0.2,0.1-0.4-0.1-0.5C16,42.7,15.7,42.3,15.7,42z M15.5,25.2C15.5,25.2,15.5,25.2,15.5,25.2c0.2,0,0.4-0.2,0.4-0.4
				c0-0.3,0-0.5,0-0.8c0-0.4,0-0.8,0.1-1.3c0-0.2-0.1-0.4-0.3-0.4c-0.2,0-0.4,0.1-0.4,0.3c0,0.4-0.1,0.9-0.1,1.3c0,0.3,0,0.6,0,0.9
				C15.2,25.1,15.3,25.2,15.5,25.2z M23.5,38.4c0-0.2-0.1-0.4-0.3-0.4c-0.7,0-1.4,0-2.2,0.2c-0.2,0-0.3,0.2-0.3,0.4
				c0,0.2,0.2,0.3,0.4,0.3c0,0,0,0,0.1,0c0.7-0.1,1.4-0.2,2.1-0.2C23.3,38.8,23.5,38.6,23.5,38.4z M15.9,21C15.9,21,15.9,21,15.9,21
				c0.3,0,0.4-0.1,0.4-0.2c0.2-0.7,0.4-1.3,0.7-2c0.1-0.2,0-0.4-0.2-0.5c-0.2-0.1-0.4,0-0.5,0.2c-0.3,0.7-0.6,1.4-0.7,2.1
				C15.6,20.7,15.7,20.9,15.9,21z M19.2,39c-0.1-0.2-0.3-0.3-0.5-0.2c-0.8,0.3-1.5,0.6-2,0.9c-0.2,0.1-0.2,0.3-0.1,0.5
				c0.1,0.1,0.2,0.2,0.3,0.2c0.1,0,0.1,0,0.2-0.1c0.5-0.3,1.2-0.6,1.9-0.9C19.2,39.4,19.3,39.2,19.2,39z M20.3,44.5
				c-0.8-0.2-1.5-0.4-2-0.6c-0.2-0.1-0.4,0-0.5,0.2c-0.1,0.2,0,0.4,0.2,0.5c0.6,0.2,1.3,0.4,2.1,0.6c0,0,0.1,0,0.1,0
				c0.2,0,0.3-0.1,0.4-0.3C20.6,44.7,20.5,44.5,20.3,44.5z M44.9,31.9c-0.2-0.4-0.6-0.5-1-0.3l-1.8,0.8l-0.9-1.8
				c-0.2-0.4-0.6-0.5-1-0.3c-0.4,0.2-0.5,0.6-0.3,0.9l0.9,1.8l-1.8,0.8c-0.4,0.2-0.5,0.6-0.3,0.9c0.2,0.4,0.6,0.5,1,0.3l1.8-0.8
				l0.9,1.8c0.1,0.3,0.4,0.4,0.6,0.4c0.1,0,0.2,0,0.3-0.1c0.4-0.2,0.5-0.6,0.3-0.9l-0.9-1.8l1.8-0.8C45,32.7,45.1,32.3,44.9,31.9z
				 M39,43.4l-1.7,1.7l-1.7-1.7c-0.3-0.3-0.6-0.3-0.9,0c-0.3,0.3-0.3,0.6,0,0.9l1.7,1.7l0.9,0.9l0.9-0.9l1.7-1.7
				c0.3-0.3,0.3-0.6,0-0.9C39.6,43.1,39.3,43.1,39,43.4z"/>
		</g>
	</g>
</g>
</svg>
