<?xml version="1.0" encoding="utf-8"?>
<!-- Generator: Adobe Illustrator 19.2.1, SVG Export Plug-In . SVG Version: 6.00 Build 0)  -->
<svg version="1.1" id="Слой_1" xmlns="http://www.w3.org/2000/svg" xmlns:xlink="http://www.w3.org/1999/xlink" x="0px" y="0px"
	 viewBox="0 0 36 36" style="enable-background:new 0 0 36 36;" xml:space="preserve">
<style type="text/css">
	.st0{fill:#ffffff;}
	.st1{fill:#F47A24;}
</style>
<path class="st0" d="M18,36L18,36C8.1,36,0,27.9,0,18v0C0,8.1,8.1,0,18,0h0c9.9,0,18,8.1,18,18v0C36,27.9,27.9,36,18,36z"/>
<g>
	<g>
		<path class="st1" d="M27.6,15c-0.5-1.3-1.3-2.4-2.2-3.4c-1-1-2.1-1.8-3.3-2.3c-1.3-0.6-2.7-0.8-4.1-0.8c-1.4,0-2.8,0.3-4.1,0.8
			c-1.2,0.5-2.4,1.3-3.3,2.3c-1,1-1.7,2.1-2.2,3.4c-0.5,1.3-0.8,2.7-0.8,4.2c0,1.5,0.3,2.9,0.8,4.2c0.3,0.8,0.7,1.5,1.2,2.2h16.8
			c0.5-0.7,0.9-1.4,1.2-2.2c0.5-1.3,0.8-2.7,0.8-4.2C28.4,17.7,28.2,16.3,27.6,15z M25.7,24.2H10.3C9.4,22.8,9,21.1,9,19.3
			C9,14.1,13,10,18,10c5,0,9,4.2,9,9.3C27,21.1,26.6,22.8,25.7,24.2z M23.7,19.1c0,0.5,0.4,0.8,0.8,0.8c0.4,0,0.8-0.4,0.8-0.8
			c0-0.5-0.4-0.8-0.8-0.8C24,18.3,23.7,18.7,23.7,19.1z M24,15.1c0-0.5-0.4-0.8-0.8-0.8c-0.4,0-0.8,0.4-0.8,0.8
			c0,0.5,0.4,0.8,0.8,0.8C23.7,15.9,24,15.6,24,15.1z M19.9,11.8c-0.4,0-0.8,0.4-0.8,0.8c0,0.5,0.4,0.8,0.8,0.8
			c0.4,0,0.8-0.4,0.8-0.8C20.7,12.2,20.4,11.8,19.9,11.8z M16.6,12.6c0-0.5-0.4-0.8-0.8-0.8c-0.4,0-0.8,0.4-0.8,0.8
			c0,0.5,0.4,0.8,0.8,0.8C16.3,13.5,16.6,13.1,16.6,12.6z M12.5,14.3c-0.4,0-0.8,0.4-0.8,0.8c0,0.5,0.4,0.8,0.8,0.8
			c0.4,0,0.8-0.4,0.8-0.8C13.3,14.7,13,14.3,12.5,14.3z M11.3,18.3c-0.4,0-0.8,0.4-0.8,0.8c0,0.5,0.4,0.8,0.8,0.8
			c0.4,0,0.8-0.4,0.8-0.8C12.1,18.7,11.7,18.3,11.3,18.3z M18.5,18.3l-0.6-4.8l-0.6,4.8c-0.7,0.3-1.2,0.9-1.2,1.8
			c0,1,0.8,1.9,1.8,1.9c1,0,1.8-0.8,1.8-1.9C19.7,19.3,19.2,18.6,18.5,18.3z"/>
	</g>
</g>
</svg>
