<?xml version="1.0" encoding="utf-8"?>
<!-- Generator: Adobe Illustrator 19.2.1, SVG Export Plug-In . SVG Version: 6.00 Build 0)  -->
<svg version="1.1" id="Слой_1" xmlns="http://www.w3.org/2000/svg" xmlns:xlink="http://www.w3.org/1999/xlink" x="0px" y="0px"
	 viewBox="0 0 36 36" style="enable-background:new 0 0 36 36;" xml:space="preserve">
<style type="text/css">
	.st0{fill:#ffffff;}
	.st1{fill:#F47A24;}
</style>
<path class="st0" d="M18,36L18,36C8.1,36,0,27.9,0,18v0C0,8.1,8.1,0,18,0l0,0c9.9,0,18,8.1,18,18v0C36,27.9,27.9,36,18,36z"/>
<g transform="translate(0,-952.36218)">
	<path class="st1" d="M22.4,961.7c0.4,0.5,0.9,0.9,1.3,1.4c0.3,0.3,0.6,0.7,0.8,1.1c-0.1,0-0.3-0.1-0.4-0.1c-0.7,0-1.3,0.6-1.3,1.3
		s0.6,1.3,1.3,1.3c0.3,0,0.6-0.1,0.8-0.3c0,3.5,0,7.8,0,7.8c0,0.5-0.4,0.8-0.8,0.8c-0.4,0-0.8-0.3-0.8-0.8v-6.2
		c0-0.3-0.2-0.3-0.2-0.3l-1,0v-2.9c0-1.8-1.3-3.3-2.9-3.3h-5.4c-1.6,0-2.9,1.5-2.9,3.3v14.4c0,0.1,0.1,0.2,0.2,0.2h10.9
		c0.1,0,0.2-0.1,0.2-0.2v-11.1h0.8v6.1c0,0.7,0.6,1.3,1.3,1.3c0.6,0,1.3-0.5,1.3-1.3c0-3.1,0-5.9,0-8.8c0-0.8-0.7-1.8-1.3-2.6
		c-0.4-0.5-0.9-0.9-1.3-1.3c-0.1-0.1-0.2-0.1-0.3,0C22.4,961.5,22.4,961.6,22.4,961.7L22.4,961.7z M13.6,961.8H19
		c1.3,0,2.5,1.3,2.5,2.9c0,4.7,0,9.5,0,14.2H11.1v-14.2C11.1,963.1,12.3,961.8,13.6,961.8z M12.4,963.9c0,1.8,0,3.5,0,5
		c2.8,0,5.6,0,7.9,0c0-1.7,0-3.5,0-5C17.5,963.9,14.7,963.9,12.4,963.9z M13.4,964.9h5.9v3h-5.9V964.9z M24.1,964.5
		c0.6,0,0.8,0.4,0.8,0.8c0,0.4-0.5,0.8-0.8,0.8c-0.5,0-0.8-0.4-0.8-0.8C23.2,964.7,23.7,964.5,24.1,964.5z"/>
</g>
<path class="st1" d="M17.6,22.4c0,0.5-0.4,1-1,1s-1-0.4-1-1c0-1.2,1-2.7,1-2.7S17.6,21.3,17.6,22.4z"/>
</svg>
