<?xml version="1.0" encoding="utf-8"?>
<!-- Generator: Adobe Illustrator 19.2.1, SVG Export Plug-In . SVG Version: 6.00 Build 0)  -->
<svg version="1.1" id="Слой_1" xmlns="http://www.w3.org/2000/svg" xmlns:xlink="http://www.w3.org/1999/xlink" x="0px" y="0px"
	 viewBox="0 0 54 54" style="enable-background:new 0 0 54 54;" xml:space="preserve">
<style type="text/css">
	.st0{fill:#FFFFFF;}
	.st1{fill:none;}
</style>
<g>
	<path class="st0" d="M40.3,19.1L35,13.8c-0.4-0.4-0.9-0.4-1.3,0L16.2,31.3c-0.1,0.1-0.1,0.1-0.2,0.2l0,0c0,0,0,0,0,0.1
		c0,0.1-0.1,0.1-0.1,0.1l-2.3,7.7c-0.2,0.6,0.5,1.4,1.2,1.2l7.7-2.3c0.1,0,0.1-0.1,0.1-0.1c0,0,0,0,0.1,0l0,0
		c0.1-0.1,0.2-0.1,0.2-0.2l17.5-17.5C40.6,20.1,40.6,19.5,40.3,19.1z M30.7,19.5l1.3,1.3L20.2,32.7l-1.8-0.9L30.7,19.5z M15.9,38.2
		l1.5-4.9l2.2,1.2l1.2,2.2L15.9,38.2z M22.4,35.7L21.5,34l11.9-11.9l1.3,1.3L22.4,35.7z M36,22.1l-4-4l2.3-2.3l4,4l0,0L36,22.1z"/>
	<path class="st1" d="M0,0h54v54H0V0z"/>
</g>
</svg>
