<?xml version="1.0" encoding="utf-8"?>
<!-- Generator: Adobe Illustrator 19.2.1, SVG Export Plug-In . SVG Version: 6.00 Build 0)  -->
<svg version="1.1" id="Слой_1" xmlns="http://www.w3.org/2000/svg" xmlns:xlink="http://www.w3.org/1999/xlink" x="0px" y="0px"
	 viewBox="0 0 88 88" style="enable-background:new 0 0 88 88;" xml:space="preserve">
<style type="text/css">
	.st0{fill:#FFFFFF;}
	.st1{fill:#F47A24;}
</style>
<path class="st0" d="M44,88L44,88C19.7,88,0,68.3,0,44l0,0C0,19.7,19.7,0,44,0l0,0c24.3,0,44,19.7,44,44l0,0C88,68.3,68.3,88,44,88z
	"/>
<path class="st1" d="M31.4,56.9c2.3,0,2.9-1.2,4.1-1.8c-0.3-0.9-0.3-0.3-0.3-1.2c0-0.3,0-0.3,0-0.6c-1.2,0.6-1.8,1.8-3.8,1.8
	c-2.9,0-2.9-2.3-6.2-2.3S22,55.1,19,55.1v1.8c2.9,0,2.9-2.3,6.2-2.3C28.2,54.6,28.2,56.9,31.4,56.9z M44,59c2.6,0,5-2.3,5-5
	c0-1.8-0.9-3.2-2.3-4.1v-3.5h8.5c0.9,0,1.5,0,1.5-0.9s-0.6-1.2-1.5-1.2h-8.5v-5.6h8.5c0.9,0,1.5,0,1.5-0.9s-0.6-1.2-1.5-1.2h-8.5V31
	h8.5c0.9,0,1.5-0.3,1.5-0.9c0-0.9-0.6-1.2-1.5-1.2h-8.5v-4.7l0,0c-0.4-1-1.2-2.2-2.7-2.2s-2.3,0.9-2.6,2.3l0,0v25.5
	C39.9,50.7,39,52.2,39,54C39,56.9,41.4,59,44,59z M56.6,62.8c-2.9,0-2.9-2.3-6.2-2.3c-2.9,0-3.2,2.1-6.5,2.3
	c-3.5-0.3-3.5-2.3-6.5-2.3c-3.2,0-3.2,2.3-6.2,2.3s-2.9-2.3-6.2-2.3c-1.5,0-2.3,0.6-3.2,1.2v1.8c0.9-0.6,1.5-1.2,3.2-1.2
	c3.2,0,3.2,2.3,6.2,2.3s2.9-2.3,6.2-2.3c2.9,0,2.9,2.1,6.2,2.3H44h0.3c3.2-0.3,3.2-2.3,6.2-2.3s2.9,2.3,6.2,2.3
	c2.9,0,2.9-2.3,6.2-2.3c1.5,0,2.3,0.6,3.2,1.2v-1.8c-0.9-0.6-1.5-1.2-3.2-1.2C59.8,60.4,59.8,62.8,56.6,62.8z M62.8,52.8
	c-3.2,0-3.2,2.3-6.2,2.3c-2.1,0-2.6-0.9-3.8-1.8c0,0.3,0,0.3,0,0.6c0,0.9,0,0.3-0.3,1.2c1.5,0.6,2.1,1.8,4.1,1.8
	c2.9,0,2.9-2.3,6.2-2.3c3.2,0,3.2,2.3,6.2,2.3v-1.8C66,55.1,66,52.8,62.8,52.8z"/>
</svg>
