<?xml version="1.0" encoding="utf-8"?>
<!-- Generator: Adobe Illustrator 19.2.1, SVG Export Plug-In . SVG Version: 6.00 Build 0)  -->
<svg version="1.1" id="Слой_1" xmlns="http://www.w3.org/2000/svg" xmlns:xlink="http://www.w3.org/1999/xlink" x="0px" y="0px"
	 viewBox="0 0 60 60" style="enable-background:new 0 0 60 60;" xml:space="preserve">
<style type="text/css">
	.st0{fill:#FFFFFF;}
	.st1{fill:#F47A24;}
</style>
<g>
	<circle class="st0" cx="30" cy="30" r="30"/>
	<g>
		<path class="st1" d="M42.1,36.8v-2.9H45v-7.7h-2.9v-2.9c0-0.8-0.6-1.5-1.5-1.5H16.5c-0.8,0-1.5,0.6-1.5,1.5v13.5
			c0,0.8,0.6,1.5,1.5,1.5h24.2C41.4,38.2,42.1,37.6,42.1,36.8z M44,27.1v5.8h-1.9v-5.8H44z M16.5,37.3c-0.3,0-0.5-0.2-0.5-0.5V23.2
			c0-0.3,0.2-0.5,0.5-0.5h24.2c0.3,0,0.5,0.2,0.5,0.5v13.5c0,0.3-0.2,0.5-0.5,0.5L16.5,37.3L16.5,37.3z"/>
		<path class="st1" d="M17.4,24.2v11.6h16.4V24.2H17.4z M32.9,25.2v9.7H30v-9.7H32.9z M29,25.2v9.7h-2.9v-9.7H29z M25.2,25.2v9.7
			h-2.9v-9.7H25.2z M21.3,25.2v9.7h-2.9v-9.7H21.3z"/>
	</g>
</g>
</svg>
