<?xml version="1.0" encoding="utf-8"?>
<!-- Generator: Adobe Illustrator 19.2.1, SVG Export Plug-In . SVG Version: 6.00 Build 0)  -->
<svg version="1.1" id="Слой_1" xmlns="http://www.w3.org/2000/svg" xmlns:xlink="http://www.w3.org/1999/xlink" x="0px" y="0px"
	 viewBox="0 0 108 108" style="enable-background:new 0 0 108 108;" xml:space="preserve">
<style type="text/css">
	.st0{fill:#fff;}
	.st1{fill:#F47A24;}
</style>
<g>
	<circle class="st0" cx="54" cy="54" r="54"/>
	<g>
		<g>
			<path class="st1" d="M76.5,42.8H72v-2.3c0-2-0.9-4.5-4.5-4.5c-3.8,0-4.5,2.9-4.5,4.5v2.3H45v-2.3c0-2-2.5-4.5-4.5-4.5
				S36,38.5,36,40.5v2.3h-4.5c-1.7,0-4.5,2.8-4.5,4.5v20.3c0,1.7,2.8,4.5,4.5,4.5h45c1.7,0,4.5-2.8,4.5-4.5V47.3
				C81,45.6,78.2,42.8,76.5,42.8z M65.3,40.5c-0.1-0.9,0.8-2.4,2.3-2.3c0.9,0.1,2.2,0.8,2.3,2.3v2.3h-4.5V40.5z M38.3,40.5
				c0-0.8,1.4-2.3,2.3-2.3s2.3,1.4,2.3,2.3v2.3h-4.5V40.5z M78.8,67.5c0,0.6-1.7,2.3-2.3,2.3h-45c-0.6,0-2.3-1.7-2.3-2.3V47.3
				c0-0.6,1.7-2.3,2.3-2.3h45c0.6,0,2.3,1.7,2.3,2.3V67.5z M56.3,49.5l-6.8,9H54v6.8l6.8-9h-4.5V49.5z"/>
		</g>
	</g>
</g>
</svg>
