<?xml version="1.0" encoding="utf-8"?>
<!-- Generator: Adobe Illustrator 19.2.1, SVG Export Plug-In . SVG Version: 6.00 Build 0)  -->
<svg version="1.1" id="Слой_1" xmlns="http://www.w3.org/2000/svg" xmlns:xlink="http://www.w3.org/1999/xlink" x="0px" y="0px"
	 viewBox="0 0 108 108" style="enable-background:new 0 0 108 108;" xml:space="preserve">
<style type="text/css">
	.st0{fill:#999999;}
</style>
<g>
	<path class="st0" d="M22.1,85.8C30.9,94.6,42.3,99,53.9,99c11.5,0,23.1-4.4,31.9-13.2C94.3,77.3,99,66,99,54s-4.7-23.3-13.2-31.8
		c-17.6-17.6-46.1-17.6-63.6,0C4.6,39.8,4.6,68.2,22.1,85.8z M95.7,51.7h-4.5v4.5h4.5c-0.5,9.5-4.3,18.5-10.6,25.5L82,78.6l-3.3,3.3
		l3.2,3.2c-7.3,6.6-16.4,10-25.6,10.6V91h-4.5v4.5c-9.2-0.5-18.3-4-25.6-10.6l3.2-3.2L26,78.6l-3.2,3.2c-6.6-7.3-10-16.3-10.6-25.5
		h4.5v-4.5h-4.5c0.5-9.2,4-18.3,10.6-25.5l3.2,3.2l3.3-3.3l-3.2-3.2c7.3-6.6,16.4-10,25.6-10.6v4.5h4.5v-4.5
		c9.2,0.5,18.3,4,25.6,10.6L78.7,26l3.3,3.3l3.2-3.2C91.4,33.3,95.2,42.2,95.7,51.7z M32,32l13.5,30.6l30.6,13.4L62.6,45.5L32,32z
		 M47.8,60.1l-9.6-22l22,9.6l9.6,22L47.8,60.1z"/>
</g>
</svg>
