<?xml version="1.0" encoding="utf-8"?>
<!-- Generator: Adobe Illustrator 19.2.1, SVG Export Plug-In . SVG Version: 6.00 Build 0)  -->
<svg version="1.1" id="Слой_1" xmlns="http://www.w3.org/2000/svg" xmlns:xlink="http://www.w3.org/1999/xlink" x="0px" y="0px"
	 viewBox="0 0 108 108" style="enable-background:new 0 0 108 108;" xml:space="preserve">
<style type="text/css">
	.st0{fill-rule:evenodd;clip-rule:evenodd;fill:#999999;}
</style>
<g>
	<g>
		<path class="st0" d="M102.2,63.7c0-16.8-14.5-30-31.9-30s-31.9,13.2-31.9,30c0,1-0.1,2.6,0,3.5c0,0.3,1,1.8,3.5,1.8
			c0,0,12.4,0,12.4,0c0.8,0,1.8-1,1.8-1.8c0-0.8-0.9-1.8-1.8-1.8H42c0-0.5,0-1.3,0-1.8c0-15.2,12.6-26.5,28.3-26.5
			c15.7,0,28.3,11.3,28.3,26.5c0,0.5,0,1.3,0,1.8H88c-0.8,0-1.8,1-1.8,1.8c0,0.8,0.9,1.8,1.8,1.8c0,0,10.7,0,10.6,0
			c1.8-0.2,2.5-0.9,3.5-1.8C102.1,66.3,102.2,64.7,102.2,63.7z M62.7,49.9l0.1,0.1c-0.5-0.4-1.2-0.5-1.8-0.2
			c-0.6,0.3-0.8,0.9-0.7,1.5l-0.1-0.1c2.2,15.1,4.9,19.4,4.9,19.5c2.1,3.4,6.9,4.6,10.6,2.6c3.7-2,5-6.3,2.8-9.8
			C78.6,63.5,75.9,59.2,62.7,49.9z M76.4,68.3c-0.3,1.1-1.1,2-2.2,2.6c-0.7,0.4-1.5,0.6-2.3,0.6c-1.7,0-3.2-0.8-4-2.1
			c0,0-2.1-3.6-4-14.9C73.6,61.6,75.9,65,76,65C76.6,66,76.7,67.1,76.4,68.3z M34.9,51.4H6.5c-0.9,0-0.9,1.8,0,1.8c0,0,7.8,0,28.3,0
			C35.8,53.1,35.8,51.4,34.9,51.4z M33.1,60.2c0.9,0,0.9-1.8,0-1.8H11.8c-0.9,0-0.9,1.8,0,1.8C11.8,60.2,17.6,60.2,33.1,60.2z
			 M33.1,65.5H8.3c-1.5,0-1.7,1.8,0,1.8h24.8C34,67.2,34,65.5,33.1,65.5z M70.3,39.9c0-0.5-0.4-0.9-0.9-0.9c-0.5,0-0.9,0.4-0.9,0.9
			c0,0.5,0.4,0.9,0.9,0.9C69.9,40.8,70.3,40.4,70.3,39.9z M57,44.3c-0.5,0-0.9,0.4-0.9,0.9c0,0.5,0.4,0.9,0.9,0.9
			c0.5,0,0.9-0.4,0.9-0.9C57.9,44.7,57.5,44.3,57,44.3z M49,52.3c0,0.5,0.4,0.9,0.9,0.9s0.9-0.4,0.9-0.9c0-0.5-0.4-0.9-0.9-0.9
			S49,51.8,49,52.3z M45.5,61.1c0,0.5,0.4,0.9,0.9,0.9c0.5,0,0.9-0.4,0.9-0.9c0-0.5-0.4-0.9-0.9-0.9C45.9,60.2,45.5,60.6,45.5,61.1z
			 M83.6,44.3c-0.5,0-0.9,0.4-0.9,0.9c0,0.5,0.4,0.9,0.9,0.9c0.5,0,0.9-0.4,0.9-0.9C84.4,44.7,84.1,44.3,83.6,44.3z M91.6,52.3
			c0-0.5-0.4-0.9-0.9-0.9c-0.5,0-0.9,0.4-0.9,0.9c0,0.5,0.4,0.9,0.9,0.9C91.2,53.1,91.6,52.7,91.6,52.3z M95.1,61.1
			c0-0.5-0.4-0.9-0.9-0.9c-0.5,0-0.9,0.4-0.9,0.9c0,0.5,0.4,0.9,0.9,0.9C94.7,61.9,95.1,61.5,95.1,61.1z"/>
	</g>
</g>
</svg>
