<?xml version="1.0" encoding="utf-8"?>
<!-- Generator: Adobe Illustrator 21.1.0, SVG Export Plug-In . SVG Version: 6.00 Build 0)  -->
<svg version="1.1" id="Слой_1" xmlns="http://www.w3.org/2000/svg" xmlns:xlink="http://www.w3.org/1999/xlink" x="0px" y="0px"
	 viewBox="0 0 108 108" style="enable-background:new 0 0 108 108;" xml:space="preserve">
<style type="text/css">
	.st0{fill:#FFFFFF;}
	.st1{fill:#F47A24;}
</style>
<g>
	<circle class="st0" cx="54" cy="54" r="54"/>
	<g>
		<g transform="translate(0,-952.36218)">
			<g>
				<path class="st1" d="M54,981.2c-13.9,0-25.2,11.3-25.2,25.2c0,13.9,11.3,25.2,25.2,25.2s25.2-11.3,25.2-25.2
					C79.2,992.5,67.9,981.2,54,981.2z M54,982.6c13.1,0,23.7,10.6,23.7,23.7c0,13.1-10.6,23.7-23.7,23.7s-23.7-10.6-23.7-23.7
					C30.3,993.3,40.9,982.6,54,982.6z"/>
				<path class="st1" d="M54,1032c-14.1,0-25.6-11.5-25.6-25.6s11.5-25.7,25.6-25.7s25.6,11.5,25.6,25.7S68.1,1032,54,1032z
					 M54,981.6c-13.6,0-24.8,11.1-24.8,24.8s11.1,24.7,24.8,24.7s24.8-11.1,24.8-24.7S67.6,981.6,54,981.6z M54,1030.5
					c-13.3,0-24.2-10.8-24.2-24.2s10.8-24.2,24.2-24.2s24.2,10.8,24.2,24.2S67.3,1030.5,54,1030.5z M54,983.1
					c-12.8,0-23.3,10.4-23.3,23.3s10.4,23.3,23.3,23.3s23.3-10.4,23.3-23.3S66.8,983.1,54,983.1z"/>
			</g>
		</g>
		<g>
			<rect x="29.2" y="52.7" transform="matrix(0.7071 -0.7071 0.7071 0.7071 -22.3675 54)" class="st1" width="49.6" height="2.5"/>
		</g>
	</g>
</g>
</svg>
