<?xml version="1.0" encoding="utf-8"?>
<!-- Generator: Adobe Illustrator 19.2.1, SVG Export Plug-In . SVG Version: 6.00 Build 0)  -->
<svg version="1.1" id="Слой_1" xmlns="http://www.w3.org/2000/svg" xmlns:xlink="http://www.w3.org/1999/xlink" x="0px" y="0px"
	 viewBox="0 0 108 108" style="enable-background:new 0 0 108 108;" xml:space="preserve">
<style type="text/css">
	.st0{fill:#fff;}
</style>
<g>
	<g>
		<path class="st0" d="M14.6,12.6c0.4,0,0.7-0.2,1-0.5c1.3-1.9,2.8-3.6,4.3-5.1c0.5-0.4,0.5-1.2,0-1.6c-0.4-0.5-1.2-0.5-1.6,0
			C16.6,7,15,8.8,13.6,10.9c-0.4,0.5-0.2,1.2,0.3,1.6C14.1,12.6,14.4,12.6,14.6,12.6z M41.3,9.2l0.4,0.4c0.2,0.2,0.5,0.4,0.9,0.4
			c0.3,0,0.6-0.1,0.8-0.3c0.5-0.4,0.5-1.1,0.1-1.6L43,7.6c-1.6-1.7-3-3.3-4.6-4.6c-0.5-0.4-1.2-0.3-1.6,0.1
			c-0.4,0.5-0.3,1.2,0.1,1.6C38.4,6,39.8,7.6,41.3,9.2z M55.1,43.9c1.4,0.2,3.2,1.5,4.9,3.5c0.2,0.3,0.6,0.4,0.9,0.4
			c0.3,0,0.5-0.1,0.7-0.3c0.5-0.4,0.5-1.1,0.1-1.6c-2.1-2.4-4.3-3.9-6.3-4.2c-0.6-0.1-1.2,0.3-1.3,1C54.1,43.2,54.5,43.8,55.1,43.9z
			 M52.7,18.6c0.2,0.1,0.3,0.1,0.5,0.1c0.4,0,0.8-0.2,1-0.6c0.3-0.6,0.1-1.3-0.5-1.5c-1.9-0.9-3.6-2.1-5.5-3.7
			c-0.5-0.4-1.2-0.4-1.6,0.1c-0.4,0.5-0.4,1.2,0.1,1.6C48.7,16.2,50.6,17.6,52.7,18.6z M28.9,53.8c0.2,0.4,0.6,0.7,1.1,0.7
			c0.1,0,0.3,0,0.4-0.1c1.8-0.8,3.9-1.7,6.4-3c0.6-0.3,0.8-1,0.5-1.5s-1-0.8-1.6-0.5c-2.4,1.2-4.4,2.2-6.2,2.9
			C28.9,52.5,28.6,53.2,28.9,53.8z M16.9,54c-0.6-0.2-1.3,0.1-1.5,0.7c-0.2,0.6,0.1,1.3,0.7,1.5c1.3,0.5,2.7,0.7,4.2,0.7
			c1,0,2.1-0.1,3.3-0.3c0.6-0.1,1-0.7,0.9-1.3c-0.1-0.6-0.7-1-1.4-0.9C20.7,54.7,18.6,54.6,16.9,54z M24.7,3.5
			c0.2,0,0.3-0.2,0.5-0.3C26.9,2.5,28.6,2,30.3,2h0c0.4,0,0.7,0.2,1.1,0.2c0.6,0.1,1.2-0.3,1.3-0.9c0.1-0.6-0.4-1.2-1-1.2
			c-0.4,0-0.9,0-1.3-0.1c-2,0-4,0.5-6,1.3c-0.6,0.3-0.8,0.9-0.6,1.5C23.9,3.3,24.3,3.5,24.7,3.5z M48.2,43.1c-2.1,0.9-4.3,2-6.3,3.1
			c-0.6,0.3-0.8,1-0.5,1.5c0.2,0.4,0.6,0.6,1,0.6c0.2,0,0.4,0,0.5-0.1c2-1.1,4.2-2.1,6.2-3c0.6-0.2,0.9-0.9,0.6-1.5
			C49.4,43.2,48.8,42.9,48.2,43.1z M95.5,56.4c0.1,0,0.2,0,0.3,0c0.5,0,1-0.3,1.1-0.9c0.4-1.3,0.7-2.6,1-3.9
			c0.1-0.6-0.2-1.2-0.9-1.4c-0.6-0.1-1.2,0.2-1.4,0.8c-0.3,1.2-0.6,2.5-1,3.8C94.6,55.6,94.9,56.2,95.5,56.4z M99.3,36.8
			c-0.6-0.1-1.2,0.4-1.3,1c-0.2,2-0.5,4.3-1,6.7c-0.1,0.6,0.3,1.2,0.9,1.3c0.1,0,0.1,0,0.2,0c0.5,0,1-0.4,1.1-0.9
			c0.5-2.5,0.8-4.8,1-6.9C100.4,37.5,100,36.9,99.3,36.8z M66.9,64.6c-0.6-0.1-1.2,0.3-1.4,0.9c-0.4,2.1-1.3,4.1-2.5,5.8
			c-0.4,0.5-0.3,1.2,0.2,1.6c0.2,0.1,0.4,0.2,0.7,0.2c0.4,0,0.7-0.2,0.9-0.5c1.5-2,2.5-4.2,2.9-6.7C67.9,65.3,67.5,64.7,66.9,64.6z
			 M87.3,18.6c2.5,0.1,4.5,0.6,6.1,1.6c0.2,0.1,0.4,0.2,0.6,0.2c0.4,0,0.8-0.2,1-0.5c0.3-0.5,0.2-1.2-0.4-1.6
			c-1.9-1.2-4.3-1.8-7.2-1.9c-0.6,0-1.2,0.5-1.2,1.1C86.1,18,86.6,18.5,87.3,18.6z M64.1,51.3c-0.6,0.3-0.8,0.9-0.6,1.5
			c1,2.1,1.6,4.1,2,6.2c0.1,0.6,0.6,1,1.1,1c0.1,0,0.1,0,0.2,0c0.6-0.1,1.1-0.7,1-1.3c-0.4-2.3-1.1-4.6-2.2-6.8
			C65.4,51.3,64.7,51.1,64.1,51.3z M66.6,18.7c-2,0.2-3.6,0.2-5.1,0c-0.5-0.1-1-0.1-1.5-0.2c-0.6-0.1-1.2,0.3-1.3,0.9
			c-0.1,0.6,0.3,1.2,1,1.3c0.5,0.1,1.1,0.2,1.7,0.2c0.7,0.1,1.5,0.1,2.3,0.1c1,0,2-0.1,3.2-0.2c0.6-0.1,1.1-0.6,1.1-1.2
			C67.8,19.1,67.2,18.6,66.6,18.7z M98.3,31c0,0.6,0.5,0.9,1.2,0.9h0.1c0.6,0,1.1-0.4,1.1-1.1c-0.1-2.7-0.6-4.9-1.3-6.9
			c-0.2-0.6-0.9-0.9-1.5-0.7c-0.6,0.2-0.9,0.9-0.7,1.4C97.8,26.5,98.2,28.5,98.3,31z M50.2,103.9c-2.4-0.1-4.7-0.3-6.9-0.5
			c-0.7-0.1-1.2,0.4-1.3,1c-0.1,0.6,0.4,1.2,1.1,1.2c2.2,0.2,4.5,0.3,6.9,0.5c0,0,0,0,0.1,0c0.6,0,1.1-0.5,1.2-1.1
			C51.3,104.4,50.9,103.9,50.2,103.9z M46.8,80.4c-0.1-0.6-0.7-1.1-1.3-1c-2.1,0.3-4.4,0.4-6.8,0.5c-0.6,0-1.1,0.4-1.1,1
			c0,0.6,0.5,1,1.2,1h0c2.5,0,4.9-0.1,7-0.4C46.5,81.5,46.9,81.1,46.8,80.4z M59.8,75.9c-0.3-0.5-1-0.7-1.6-0.4
			c-1.7,1-3.8,1.9-6.1,2.6c-0.6,0.2-1,0.8-0.8,1.4c0.2,0.5,0.6,0.8,1.1,0.8c0.1,0,0.2,0,0.3,0c2.5-0.7,4.7-1.7,6.6-2.8
			C60,77.1,60.1,76.4,59.8,75.9z M73.5,20c0.1,0,0.1,0,0.2,0l1.2-0.2c1.9-0.3,3.8-0.6,5.6-0.9c0.6-0.1,1.1-0.7,1-1.3
			c-0.1-0.6-0.6-1.1-1.3-1c-1.9,0.2-3.8,0.6-5.7,0.9l-1.2,0.2c-0.6,0.1-1.1,0.7-1,1.3C72.5,19.6,73,20,73.5,20z M64.1,105
			c-2.4-0.1-4.7-0.3-6.9-0.5c-0.7-0.1-1.2,0.4-1.3,1c-0.1,0.6,0.4,1.2,1.1,1.2c2.2,0.2,4.5,0.4,6.9,0.5c0,0,0,0,0.1,0
			c0.6,0,1.1-0.5,1.2-1.1C65.2,105.6,64.7,105,64.1,105z M36.4,102.7c-2.4-0.3-4.7-0.6-6.8-0.9c-0.6-0.1-1.2,0.3-1.3,0.9
			c-0.1,0.6,0.3,1.2,1,1.3c2.1,0.3,4.5,0.6,6.9,0.9c0,0,0.1,0,0.1,0c0.6,0,1.1-0.4,1.1-1C37.5,103.3,37.1,102.8,36.4,102.7z
			 M8.4,43.2c-0.6,0.2-1,0.8-0.8,1.4c0.7,2.3,1.7,4.5,2.9,6.5c0.2,0.4,0.6,0.6,1,0.6c0.2,0,0.4-0.1,0.6-0.2c0.5-0.3,0.7-1,0.4-1.6
			c-1.1-1.8-2-3.8-2.7-6C9.6,43.3,9,43,8.4,43.2z M8.1,92.4c0-0.3,0.1-0.7,0.2-1c0.2-0.6-0.1-1.2-0.7-1.5C7,89.7,6.3,90,6.1,90.6
			c-0.2,0.6-0.3,1.2-0.3,1.8c0,1.9,1.1,3.7,3.3,5.3C9.3,97.9,9.5,98,9.7,98c0.4,0,0.7-0.2,0.9-0.5c0.4-0.5,0.3-1.2-0.2-1.6
			C8.9,94.8,8.1,93.6,8.1,92.4z M7.5,38.7C7.5,38.7,7.5,38.7,7.5,38.7c0.7,0,1.2-0.6,1.2-1.2c-0.1-0.9-0.1-1.7-0.1-2.6
			c0-1.3,0.1-2.7,0.2-4c0.1-0.6-0.4-1.2-1-1.3c-0.6-0.1-1.2,0.4-1.3,1c-0.2,1.4-0.2,2.9-0.2,4.3c0,0.9,0,1.9,0.1,2.8
			C6.3,38.2,6.9,38.7,7.5,38.7z M31.8,82.1c0.7,0.1,1.2-0.5,1.2-1.1c0-0.6-0.5-1.2-1.1-1.2c-2.2-0.1-4.6,0.1-7.2,0.5
			c-0.6,0.1-1.1,0.7-0.9,1.3c0.1,0.6,0.6,0.9,1.1,0.9c0.1,0,0.1,0,0.2,0C27.5,82.2,29.7,82.1,31.8,82.1z M8.6,25c0.1,0,0.2,0,0.3,0
			c0.5,0,1-0.3,1.1-0.8c0.6-2.2,1.4-4.3,2.3-6.3c0.3-0.6,0-1.3-0.6-1.5c-0.6-0.3-1.3,0-1.5,0.6c-1,2.1-1.8,4.4-2.4,6.6
			C7.6,24.3,8,24.9,8.6,25z M19.3,82.9c-0.2-0.6-0.9-0.9-1.5-0.7c-2.4,0.8-4.7,1.9-6.5,3c-0.5,0.3-0.7,1-0.4,1.6
			c0.2,0.3,0.6,0.5,1,0.5c0.2,0,0.4-0.1,0.6-0.2c1.7-1,3.8-2,6-2.8C19.2,84.1,19.5,83.4,19.3,82.9z M22.9,100.5
			c-2.5-0.5-4.7-1.2-6.6-1.8c-0.6-0.2-1.3,0.1-1.5,0.7c-0.2,0.6,0.1,1.2,0.7,1.5c2,0.7,4.3,1.3,6.8,1.9c0.1,0,0.2,0,0.3,0
			c0.5,0,1-0.4,1.1-0.9C23.9,101.3,23.5,100.7,22.9,100.5z M102,60.2c-0.6-1.1-1.9-1.6-3.1-1.1l-5.7,2.7l-2.8-5.7
			c-0.6-1.1-1.9-1.6-3.1-1.1c-1.2,0.5-1.6,1.9-1.1,3.1l2.8,5.7l-5.7,2.7c-1.2,0.5-1.6,1.9-1.1,3.1c0.6,1.1,1.9,1.6,3.1,1.1L91,68
			l2.8,5.7c0.4,0.8,1.2,1.3,2.1,1.3c0.3,0,0.7-0.1,1-0.2c1.2-0.5,1.6-1.9,1.1-3.1L95.2,66l5.7-2.7C102.1,62.7,102.5,61.3,102,60.2z
			 M82.9,96.9l-5.5,5.5l-5.5-5.5c-0.9-0.9-1.8-0.9-2.8,0c-0.9,0.9-0.9,1.8,0,2.8l5.5,5.5l2.8,2.8l2.8-2.8l5.5-5.5
			c0.9-0.9,0.9-1.8,0-2.8C84.8,96,83.9,96.1,82.9,96.9z"/>
	</g>
</g>
</svg>
