<?xml version="1.0" encoding="utf-8"?>
<!-- Generator: Adobe Illustrator 19.2.1, SVG Export Plug-In . SVG Version: 6.00 Build 0)  -->
<svg version="1.1" id="Слой_1" xmlns="http://www.w3.org/2000/svg" xmlns:xlink="http://www.w3.org/1999/xlink" x="0px" y="0px"
	 viewBox="0 0 44 44" style="enable-background:new 0 0 44 44;" xml:space="preserve">
<style type="text/css">
	.st0{fill:#fff;}
</style>
<path class="st0" d="M24.5,21.8c-0.8-0.3-1.7-0.5-2.5-0.5c-2.5,0-4.9,1.3-6.2,3.6c-2,3.4-0.8,7.8,2.6,9.8c1.1,0.7,2.4,1,3.6,1
	c2.5,0,4.9-1.3,6.2-3.6c1.8-3,1-6.8-1.5-9l3.2-8.2L24.5,21.8z M27.2,27.1c0.4,1.4,0.2,2.8-0.5,4.1c-1,1.7-2.8,2.7-4.7,2.7
	c-0.9,0-1.9-0.2-2.7-0.7c-2.6-1.5-3.5-4.8-2-7.3c1-1.7,2.8-2.7,4.7-2.7c0.9,0,1.9,0.2,2.7,0.7C25.9,24.5,26.8,25.7,27.2,27.1z
	 M21.6,4.9C9.4,4.9,0,14.4,0,26.5c0,4.5,1.3,9.1,3.6,12.6h9v-1.8H4.5c-1.9-3.1-2.7-7.1-2.7-10.8c0-11.1,8.6-19.8,19.8-19.8
	c11.1,0,20.7,8.6,20.7,19.8c0,3.7-0.8,7.6-2.7,10.8h-8.1v1.8h9C42.7,35.6,44,31,44,26.5C44,14.4,33.7,4.9,21.6,4.9z"/>
</svg>
