<?xml version="1.0" encoding="utf-8"?>
<!-- Generator: Adobe Illustrator 19.2.1, SVG Export Plug-In . SVG Version: 6.00 Build 0)  -->
<svg version="1.1" id="Слой_1" xmlns="http://www.w3.org/2000/svg" xmlns:xlink="http://www.w3.org/1999/xlink" x="0px" y="0px"
	 viewBox="0 0 24 24" style="enable-background:new 0 0 24 24;" xml:space="preserve">
<style type="text/css">
	.st0{fill:#ffffff;}
	.st1{fill:#F47A24;}
	.st2{fill:none;stroke:#F47A24;stroke-width:0.2;stroke-miterlimit:10;}
</style>
<g>
	<circle class="st0" cx="12" cy="12" r="12"/>
	<g>
		<g>
			<path class="st1" d="M7.1,6.9c0,0,0.1,0,0.1-0.1c0.2-0.2,0.3-0.5,0.5-0.6C7.8,6.1,7.8,6,7.8,6C7.7,5.9,7.6,5.9,7.5,6
				C7.3,6.1,7.2,6.4,7,6.6C6.9,6.7,6.9,6.8,7.1,6.9C7,6.8,7.1,6.9,7.1,6.9z M10.4,6.4L10.4,6.4c0.1,0.1,0.1,0.1,0.2,0.1
				c0,0,0.1,0,0.1,0c0.1-0.1,0.1-0.1,0-0.2l0-0.1c-0.2-0.2-0.4-0.4-0.6-0.6c-0.1-0.1-0.2,0-0.2,0c-0.1,0.1,0,0.1,0,0.2
				C10.1,6,10.2,6.2,10.4,6.4z M12.1,10.7c0.2,0,0.4,0.2,0.6,0.4c0,0,0.1,0.1,0.1,0.1c0,0,0.1,0,0.1,0C13,11.1,13,11,13,11
				c-0.3-0.3-0.5-0.5-0.8-0.5c-0.1,0-0.2,0-0.2,0.1C12,10.7,12.1,10.7,12.1,10.7z M11.8,7.6C11.9,7.6,11.9,7.6,11.8,7.6
				c0.1,0,0.2,0,0.2-0.1c0-0.1,0-0.2-0.1-0.2c-0.2-0.1-0.5-0.3-0.7-0.5c-0.1-0.1-0.2,0-0.2,0c-0.1,0.1,0,0.1,0,0.2
				C11.3,7.3,11.6,7.5,11.8,7.6z M8.9,12c0,0.1,0.1,0.1,0.1,0.1c0,0,0,0,0.1,0c0.2-0.1,0.5-0.2,0.8-0.4c0.1,0,0.1-0.1,0.1-0.2
				c0-0.1-0.1-0.1-0.2-0.1c-0.3,0.2-0.5,0.3-0.8,0.4C8.9,11.8,8.8,11.9,8.9,12z M7.4,12c-0.1,0-0.2,0-0.2,0.1c0,0.1,0,0.2,0.1,0.2
				c0.2,0.1,0.3,0.1,0.5,0.1c0.1,0,0.3,0,0.4,0c0.1,0,0.1-0.1,0.1-0.2c0-0.1-0.1-0.1-0.2-0.1C7.9,12.1,7.6,12.1,7.4,12z M8.4,5.7
				C8.4,5.7,8.4,5.7,8.4,5.7C8.6,5.6,8.8,5.5,9,5.5h0c0,0,0.1,0,0.1,0c0.1,0,0.1,0,0.2-0.1c0-0.1,0-0.1-0.1-0.2c-0.1,0-0.1,0-0.2,0
				c-0.2,0-0.5,0.1-0.7,0.2c-0.1,0-0.1,0.1-0.1,0.2C8.2,5.7,8.3,5.7,8.4,5.7z M11.3,10.6c-0.3,0.1-0.5,0.2-0.8,0.4
				c-0.1,0-0.1,0.1-0.1,0.2c0,0,0.1,0.1,0.1,0.1c0,0,0,0,0.1,0c0.3-0.1,0.5-0.3,0.8-0.4c0.1,0,0.1-0.1,0.1-0.2
				C11.4,10.7,11.3,10.6,11.3,10.6z M17.2,12.3C17.2,12.3,17.2,12.3,17.2,12.3c0.1,0,0.2,0,0.2-0.1c0-0.2,0.1-0.3,0.1-0.5
				c0-0.1,0-0.2-0.1-0.2c-0.1,0-0.2,0-0.2,0.1c0,0.2-0.1,0.3-0.1,0.5C17,12.2,17.1,12.3,17.2,12.3z M17.6,9.9c-0.1,0-0.1,0-0.2,0.1
				c0,0.3-0.1,0.5-0.1,0.8c0,0.1,0,0.2,0.1,0.2c0,0,0,0,0,0c0.1,0,0.1,0,0.1-0.1c0.1-0.3,0.1-0.6,0.1-0.9
				C17.8,9.9,17.7,9.9,17.6,9.9z M13.6,13.3c-0.1,0-0.2,0-0.2,0.1c-0.1,0.3-0.2,0.5-0.3,0.7c0,0.1,0,0.2,0,0.2c0,0,0.1,0,0.1,0
				c0,0,0.1,0,0.1-0.1c0.2-0.2,0.3-0.5,0.4-0.8C13.7,13.4,13.7,13.3,13.6,13.3z M16.1,7.6c0.3,0,0.6,0.1,0.8,0.2c0,0,0,0,0.1,0
				c0,0,0.1,0,0.1-0.1c0-0.1,0-0.2,0-0.2c-0.2-0.1-0.5-0.2-0.9-0.2c-0.1,0-0.1,0.1-0.2,0.1C16,7.5,16.1,7.6,16.1,7.6z M13.3,11.7
				c-0.1,0-0.1,0.1-0.1,0.2c0.1,0.3,0.2,0.5,0.2,0.8c0,0.1,0.1,0.1,0.1,0.1c0,0,0,0,0,0c0.1,0,0.1-0.1,0.1-0.2
				c0-0.3-0.1-0.6-0.3-0.8C13.4,11.7,13.3,11.6,13.3,11.7z M13.6,7.6c-0.2,0-0.5,0-0.6,0c-0.1,0-0.1,0-0.2,0c-0.1,0-0.2,0-0.2,0.1
				c0,0.1,0,0.2,0.1,0.2c0.1,0,0.1,0,0.2,0c0.1,0,0.2,0,0.3,0c0.1,0,0.3,0,0.4,0c0.1,0,0.1-0.1,0.1-0.2C13.7,7.7,13.6,7.6,13.6,7.6z
				 M17.5,9.1c0,0.1,0.1,0.1,0.1,0.1h0c0.1,0,0.1,0,0.1-0.1c0-0.3-0.1-0.6-0.2-0.9c0-0.1-0.1-0.1-0.2-0.1c-0.1,0-0.1,0.1-0.1,0.2
				C17.4,8.6,17.5,8.8,17.5,9.1z M11.5,18.2c-0.3,0-0.6,0-0.9-0.1c-0.1,0-0.1,0.1-0.2,0.1c0,0.1,0.1,0.1,0.1,0.2
				c0.3,0,0.6,0,0.9,0.1c0,0,0,0,0,0c0.1,0,0.1-0.1,0.1-0.1C11.7,18.3,11.6,18.2,11.5,18.2z M11.1,15.3c0-0.1-0.1-0.1-0.2-0.1
				c-0.3,0-0.5,0.1-0.8,0.1c-0.1,0-0.1,0.1-0.1,0.1c0,0.1,0.1,0.1,0.1,0.1h0c0.3,0,0.6,0,0.9-0.1C11.1,15.4,11.1,15.4,11.1,15.3z
				 M12.7,14.7c0-0.1-0.1-0.1-0.2,0c-0.2,0.1-0.5,0.2-0.8,0.3c-0.1,0-0.1,0.1-0.1,0.2c0,0.1,0.1,0.1,0.1,0.1c0,0,0,0,0,0
				c0.3-0.1,0.6-0.2,0.8-0.4C12.7,14.9,12.8,14.8,12.7,14.7z M14.4,7.8C14.4,7.8,14.4,7.8,14.4,7.8l0.2,0c0.2,0,0.5-0.1,0.7-0.1
				c0.1,0,0.1-0.1,0.1-0.2c0-0.1-0.1-0.1-0.2-0.1c-0.2,0-0.5,0.1-0.7,0.1l-0.1,0c-0.1,0-0.1,0.1-0.1,0.2C14.3,7.7,14.4,7.8,14.4,7.8
				z M13.3,18.3c-0.3,0-0.6,0-0.9-0.1c-0.1,0-0.1,0.1-0.2,0.1c0,0.1,0.1,0.1,0.1,0.2c0.3,0,0.6,0,0.9,0.1c0,0,0,0,0,0
				c0.1,0,0.1-0.1,0.1-0.1C13.4,18.4,13.3,18.4,13.3,18.3z M9.8,18.1C9.5,18,9.2,18,9,17.9c-0.1,0-0.2,0-0.2,0.1
				c0,0.1,0,0.2,0.1,0.2c0.3,0,0.6,0.1,0.9,0.1c0,0,0,0,0,0c0.1,0,0.1-0.1,0.1-0.1C10,18.1,9.9,18.1,9.8,18.1z M6.3,10.7
				c-0.1,0-0.1,0.1-0.1,0.2c0.1,0.3,0.2,0.6,0.4,0.8c0,0,0.1,0.1,0.1,0.1c0,0,0.1,0,0.1,0c0.1,0,0.1-0.1,0-0.2
				c-0.1-0.2-0.3-0.5-0.3-0.7C6.5,10.7,6.4,10.6,6.3,10.7z M6.3,16.8c0,0,0-0.1,0-0.1c0-0.1,0-0.2-0.1-0.2c-0.1,0-0.2,0-0.2,0.1
				c0,0.1,0,0.2,0,0.2c0,0.2,0.1,0.5,0.4,0.7c0,0,0.1,0,0.1,0c0,0,0.1,0,0.1-0.1c0-0.1,0-0.2,0-0.2C6.4,17.1,6.3,16.9,6.3,16.8z
				 M6.2,10.1C6.2,10.1,6.2,10.1,6.2,10.1c0.1,0,0.1-0.1,0.1-0.2c0-0.1,0-0.2,0-0.3c0-0.2,0-0.3,0-0.5C6.4,9,6.3,9,6.2,9
				c-0.1,0-0.2,0-0.2,0.1c0,0.2,0,0.4,0,0.5c0,0.1,0,0.2,0,0.3C6.1,10,6.1,10.1,6.2,10.1z M9.4,15.4c0-0.1-0.1-0.1-0.1-0.1
				c-0.3,0-0.6,0-0.9,0.1c-0.1,0-0.1,0.1-0.1,0.2c0,0.1,0.1,0.1,0.1,0.1c0,0,0,0,0,0c0.3-0.1,0.6-0.1,0.8-0.1
				C9.3,15.5,9.4,15.4,9.4,15.4z M6.3,8.4C6.4,8.4,6.4,8.4,6.3,8.4c0.1,0,0.2,0,0.2-0.1C6.6,8,6.7,7.8,6.8,7.5c0-0.1,0-0.2-0.1-0.2
				c-0.1,0-0.2,0-0.2,0.1C6.4,7.7,6.3,7.9,6.2,8.2C6.2,8.3,6.3,8.4,6.3,8.4z M7.7,15.6c0-0.1-0.1-0.1-0.2-0.1
				c-0.3,0.1-0.6,0.2-0.8,0.4c-0.1,0-0.1,0.1,0,0.2c0,0,0.1,0.1,0.1,0.1c0,0,0.1,0,0.1,0C7,16,7.3,15.9,7.6,15.8
				C7.7,15.7,7.7,15.7,7.7,15.6z M8.1,17.8c-0.3-0.1-0.6-0.1-0.8-0.2c-0.1,0-0.2,0-0.2,0.1c0,0.1,0,0.2,0.1,0.2
				c0.2,0.1,0.5,0.2,0.8,0.2c0,0,0,0,0,0c0.1,0,0.1,0,0.1-0.1C8.3,17.9,8.2,17.8,8.1,17.8z M18,12.8c-0.1-0.1-0.2-0.2-0.4-0.1
				L16.9,13l-0.3-0.7c-0.1-0.1-0.2-0.2-0.4-0.1c-0.1,0.1-0.2,0.2-0.1,0.4l0.3,0.7l-0.7,0.3c-0.1,0.1-0.2,0.2-0.1,0.4
				c0.1,0.1,0.2,0.2,0.4,0.1l0.7-0.3l0.3,0.7c0,0.1,0.2,0.2,0.3,0.2c0,0,0.1,0,0.1,0c0.1-0.1,0.2-0.2,0.1-0.4l-0.3-0.7l0.7-0.3
				C18,13.1,18,12.9,18,12.8z M15.6,17.3L14.9,18l-0.7-0.7c-0.1-0.1-0.2-0.1-0.3,0c-0.1,0.1-0.1,0.2,0,0.3l0.7,0.7l0.3,0.3l0.3-0.3
				l0.7-0.7c0.1-0.1,0.1-0.2,0-0.3S15.7,17.2,15.6,17.3z"/>
		</g>
		<g>
			<path class="st2" d="M7.1,6.9c0,0,0.1,0,0.1-0.1c0.2-0.2,0.3-0.5,0.5-0.6C7.8,6.1,7.8,6,7.8,6C7.7,5.9,7.6,5.9,7.5,6
				C7.3,6.1,7.2,6.4,7,6.6C6.9,6.7,6.9,6.8,7.1,6.9C7,6.8,7.1,6.9,7.1,6.9z M10.4,6.4L10.4,6.4c0.1,0.1,0.1,0.1,0.2,0.1
				c0,0,0.1,0,0.1,0c0.1-0.1,0.1-0.1,0-0.2l0-0.1c-0.2-0.2-0.4-0.4-0.6-0.6c-0.1-0.1-0.2,0-0.2,0c-0.1,0.1,0,0.1,0,0.2
				C10.1,6,10.2,6.2,10.4,6.4z M12.1,10.7c0.2,0,0.4,0.2,0.6,0.4c0,0,0.1,0.1,0.1,0.1c0,0,0.1,0,0.1,0C13,11.1,13,11,13,11
				c-0.3-0.3-0.5-0.5-0.8-0.5c-0.1,0-0.2,0-0.2,0.1C12,10.7,12.1,10.7,12.1,10.7z M11.8,7.6C11.9,7.6,11.9,7.6,11.8,7.6
				c0.1,0,0.2,0,0.2-0.1c0-0.1,0-0.2-0.1-0.2c-0.2-0.1-0.5-0.3-0.7-0.5c-0.1-0.1-0.2,0-0.2,0c-0.1,0.1,0,0.1,0,0.2
				C11.3,7.3,11.6,7.5,11.8,7.6z M8.9,12c0,0.1,0.1,0.1,0.1,0.1c0,0,0,0,0.1,0c0.2-0.1,0.5-0.2,0.8-0.4c0.1,0,0.1-0.1,0.1-0.2
				c0-0.1-0.1-0.1-0.2-0.1c-0.3,0.2-0.5,0.3-0.8,0.4C8.9,11.8,8.8,11.9,8.9,12z M7.4,12c-0.1,0-0.2,0-0.2,0.1c0,0.1,0,0.2,0.1,0.2
				c0.2,0.1,0.3,0.1,0.5,0.1c0.1,0,0.3,0,0.4,0c0.1,0,0.1-0.1,0.1-0.2c0-0.1-0.1-0.1-0.2-0.1C7.9,12.1,7.6,12.1,7.4,12z M8.4,5.7
				C8.4,5.7,8.4,5.7,8.4,5.7C8.6,5.6,8.8,5.5,9,5.5h0c0,0,0.1,0,0.1,0c0.1,0,0.1,0,0.2-0.1c0-0.1,0-0.1-0.1-0.2c-0.1,0-0.1,0-0.2,0
				c-0.2,0-0.5,0.1-0.7,0.2c-0.1,0-0.1,0.1-0.1,0.2C8.2,5.7,8.3,5.7,8.4,5.7z M11.3,10.6c-0.3,0.1-0.5,0.2-0.8,0.4
				c-0.1,0-0.1,0.1-0.1,0.2c0,0,0.1,0.1,0.1,0.1c0,0,0,0,0.1,0c0.3-0.1,0.5-0.3,0.8-0.4c0.1,0,0.1-0.1,0.1-0.2
				C11.4,10.7,11.3,10.6,11.3,10.6z M17.2,12.3C17.2,12.3,17.2,12.3,17.2,12.3c0.1,0,0.2,0,0.2-0.1c0-0.2,0.1-0.3,0.1-0.5
				c0-0.1,0-0.2-0.1-0.2c-0.1,0-0.2,0-0.2,0.1c0,0.2-0.1,0.3-0.1,0.5C17,12.2,17.1,12.3,17.2,12.3z M17.6,9.9c-0.1,0-0.1,0-0.2,0.1
				c0,0.3-0.1,0.5-0.1,0.8c0,0.1,0,0.2,0.1,0.2c0,0,0,0,0,0c0.1,0,0.1,0,0.1-0.1c0.1-0.3,0.1-0.6,0.1-0.9
				C17.8,9.9,17.7,9.9,17.6,9.9z M13.6,13.3c-0.1,0-0.2,0-0.2,0.1c-0.1,0.3-0.2,0.5-0.3,0.7c0,0.1,0,0.2,0,0.2c0,0,0.1,0,0.1,0
				c0,0,0.1,0,0.1-0.1c0.2-0.2,0.3-0.5,0.4-0.8C13.7,13.4,13.7,13.3,13.6,13.3z M16.1,7.6c0.3,0,0.6,0.1,0.8,0.2c0,0,0,0,0.1,0
				c0,0,0.1,0,0.1-0.1c0-0.1,0-0.2,0-0.2c-0.2-0.1-0.5-0.2-0.9-0.2c-0.1,0-0.1,0.1-0.2,0.1C16,7.5,16.1,7.6,16.1,7.6z M13.3,11.7
				c-0.1,0-0.1,0.1-0.1,0.2c0.1,0.3,0.2,0.5,0.2,0.8c0,0.1,0.1,0.1,0.1,0.1c0,0,0,0,0,0c0.1,0,0.1-0.1,0.1-0.2
				c0-0.3-0.1-0.6-0.3-0.8C13.4,11.7,13.3,11.6,13.3,11.7z M13.6,7.6c-0.2,0-0.5,0-0.6,0c-0.1,0-0.1,0-0.2,0c-0.1,0-0.2,0-0.2,0.1
				c0,0.1,0,0.2,0.1,0.2c0.1,0,0.1,0,0.2,0c0.1,0,0.2,0,0.3,0c0.1,0,0.3,0,0.4,0c0.1,0,0.1-0.1,0.1-0.2C13.7,7.7,13.6,7.6,13.6,7.6z
				 M17.5,9.1c0,0.1,0.1,0.1,0.1,0.1h0c0.1,0,0.1,0,0.1-0.1c0-0.3-0.1-0.6-0.2-0.9c0-0.1-0.1-0.1-0.2-0.1c-0.1,0-0.1,0.1-0.1,0.2
				C17.4,8.6,17.5,8.8,17.5,9.1z M11.5,18.2c-0.3,0-0.6,0-0.9-0.1c-0.1,0-0.1,0.1-0.2,0.1c0,0.1,0.1,0.1,0.1,0.2
				c0.3,0,0.6,0,0.9,0.1c0,0,0,0,0,0c0.1,0,0.1-0.1,0.1-0.1C11.7,18.3,11.6,18.2,11.5,18.2z M11.1,15.3c0-0.1-0.1-0.1-0.2-0.1
				c-0.3,0-0.5,0.1-0.8,0.1c-0.1,0-0.1,0.1-0.1,0.1c0,0.1,0.1,0.1,0.1,0.1h0c0.3,0,0.6,0,0.9-0.1C11.1,15.4,11.1,15.4,11.1,15.3z
				 M12.7,14.7c0-0.1-0.1-0.1-0.2,0c-0.2,0.1-0.5,0.2-0.8,0.3c-0.1,0-0.1,0.1-0.1,0.2c0,0.1,0.1,0.1,0.1,0.1c0,0,0,0,0,0
				c0.3-0.1,0.6-0.2,0.8-0.4C12.7,14.9,12.8,14.8,12.7,14.7z M14.4,7.8C14.4,7.8,14.4,7.8,14.4,7.8l0.2,0c0.2,0,0.5-0.1,0.7-0.1
				c0.1,0,0.1-0.1,0.1-0.2c0-0.1-0.1-0.1-0.2-0.1c-0.2,0-0.5,0.1-0.7,0.1l-0.1,0c-0.1,0-0.1,0.1-0.1,0.2C14.3,7.7,14.4,7.8,14.4,7.8
				z M13.3,18.3c-0.3,0-0.6,0-0.9-0.1c-0.1,0-0.1,0.1-0.2,0.1c0,0.1,0.1,0.1,0.1,0.2c0.3,0,0.6,0,0.9,0.1c0,0,0,0,0,0
				c0.1,0,0.1-0.1,0.1-0.1C13.4,18.4,13.3,18.4,13.3,18.3z M9.8,18.1C9.5,18,9.2,18,9,17.9c-0.1,0-0.2,0-0.2,0.1
				c0,0.1,0,0.2,0.1,0.2c0.3,0,0.6,0.1,0.9,0.1c0,0,0,0,0,0c0.1,0,0.1-0.1,0.1-0.1C10,18.1,9.9,18.1,9.8,18.1z M6.3,10.7
				c-0.1,0-0.1,0.1-0.1,0.2c0.1,0.3,0.2,0.6,0.4,0.8c0,0,0.1,0.1,0.1,0.1c0,0,0.1,0,0.1,0c0.1,0,0.1-0.1,0-0.2
				c-0.1-0.2-0.3-0.5-0.3-0.7C6.5,10.7,6.4,10.6,6.3,10.7z M6.3,16.8c0,0,0-0.1,0-0.1c0-0.1,0-0.2-0.1-0.2c-0.1,0-0.2,0-0.2,0.1
				c0,0.1,0,0.2,0,0.2c0,0.2,0.1,0.5,0.4,0.7c0,0,0.1,0,0.1,0c0,0,0.1,0,0.1-0.1c0-0.1,0-0.2,0-0.2C6.4,17.1,6.3,16.9,6.3,16.8z
				 M6.2,10.1C6.2,10.1,6.2,10.1,6.2,10.1c0.1,0,0.1-0.1,0.1-0.2c0-0.1,0-0.2,0-0.3c0-0.2,0-0.3,0-0.5C6.4,9,6.3,9,6.2,9
				c-0.1,0-0.2,0-0.2,0.1c0,0.2,0,0.4,0,0.5c0,0.1,0,0.2,0,0.3C6.1,10,6.1,10.1,6.2,10.1z M9.4,15.4c0-0.1-0.1-0.1-0.1-0.1
				c-0.3,0-0.6,0-0.9,0.1c-0.1,0-0.1,0.1-0.1,0.2c0,0.1,0.1,0.1,0.1,0.1c0,0,0,0,0,0c0.3-0.1,0.6-0.1,0.8-0.1
				C9.3,15.5,9.4,15.4,9.4,15.4z M6.3,8.4C6.4,8.4,6.4,8.4,6.3,8.4c0.1,0,0.2,0,0.2-0.1C6.6,8,6.7,7.8,6.8,7.5c0-0.1,0-0.2-0.1-0.2
				c-0.1,0-0.2,0-0.2,0.1C6.4,7.7,6.3,7.9,6.2,8.2C6.2,8.3,6.3,8.4,6.3,8.4z M7.7,15.6c0-0.1-0.1-0.1-0.2-0.1
				c-0.3,0.1-0.6,0.2-0.8,0.4c-0.1,0-0.1,0.1,0,0.2c0,0,0.1,0.1,0.1,0.1c0,0,0.1,0,0.1,0C7,16,7.3,15.9,7.6,15.8
				C7.7,15.7,7.7,15.7,7.7,15.6z M8.1,17.8c-0.3-0.1-0.6-0.1-0.8-0.2c-0.1,0-0.2,0-0.2,0.1c0,0.1,0,0.2,0.1,0.2
				c0.2,0.1,0.5,0.2,0.8,0.2c0,0,0,0,0,0c0.1,0,0.1,0,0.1-0.1C8.3,17.9,8.2,17.8,8.1,17.8z M18,12.8c-0.1-0.1-0.2-0.2-0.4-0.1
				L16.9,13l-0.3-0.7c-0.1-0.1-0.2-0.2-0.4-0.1c-0.1,0.1-0.2,0.2-0.1,0.4l0.3,0.7l-0.7,0.3c-0.1,0.1-0.2,0.2-0.1,0.4
				c0.1,0.1,0.2,0.2,0.4,0.1l0.7-0.3l0.3,0.7c0,0.1,0.2,0.2,0.3,0.2c0,0,0.1,0,0.1,0c0.1-0.1,0.2-0.2,0.1-0.4l-0.3-0.7l0.7-0.3
				C18,13.1,18,12.9,18,12.8z M15.6,17.3L14.9,18l-0.7-0.7c-0.1-0.1-0.2-0.1-0.3,0c-0.1,0.1-0.1,0.2,0,0.3l0.7,0.7l0.3,0.3l0.3-0.3
				l0.7-0.7c0.1-0.1,0.1-0.2,0-0.3S15.7,17.2,15.6,17.3z"/>
		</g>
	</g>
</g>
</svg>
