<?xml version="1.0" encoding="utf-8"?>
<!-- Generator: Adobe Illustrator 19.2.1, SVG Export Plug-In . SVG Version: 6.00 Build 0)  -->
<svg version="1.1" id="Слой_1" xmlns="http://www.w3.org/2000/svg" xmlns:xlink="http://www.w3.org/1999/xlink" x="0px" y="0px"
	 viewBox="0 0 36 36" style="enable-background:new 0 0 36 36;" xml:space="preserve">
<style type="text/css">
	.st0{fill:#ffffff;}
	.st1{fill:#F47A24;}
</style>
<path class="st0" d="M18,36L18,36C8.1,36,0,27.9,0,18v0C0,8.1,8.1,0,18,0h0c9.9,0,18,8.1,18,18v0C36,27.9,27.9,36,18,36z"/>
<path class="st1" d="M12.8,23.3c0.9,0,1.2-0.5,1.7-0.8c-0.1-0.3-0.1-0.1-0.1-0.5c0-0.1,0-0.2,0-0.2c-0.5,0.3-0.7,0.7-1.6,0.7
	c-1.3,0-1.3-0.9-2.5-0.9c-1.3,0-1.3,0.9-2.5,0.9v0.7c1.3,0,1.3-0.9,2.5-0.9C11.5,22.4,11.5,23.3,12.8,23.3z M18,24.1
	c1.1,0,2-0.9,2-2c0-0.7-0.4-1.4-0.9-1.7V19h3.5c0.3,0,0.6,0,0.6-0.4c0-0.3-0.3-0.5-0.6-0.5h-3.5v-2.3h3.5c0.3,0,0.6-0.1,0.6-0.4
	c0-0.3-0.3-0.4-0.6-0.4h-3.5v-2.3h3.5c0.3,0,0.6-0.1,0.6-0.4c0-0.3-0.3-0.4-0.6-0.4h-3.5V10h0C19,9.4,18.6,9,18,9
	c-0.6,0-1,0.4-1.1,0.9h0v10.4c-0.6,0.4-0.9,1-0.9,1.7C16,23.2,16.9,24.1,18,24.1z M23.2,25.7c-1.3,0-1.3-0.9-2.5-0.9
	c-1.2,0-1.3,0.9-2.7,0.9c-1.4-0.1-1.5-0.9-2.7-0.9c-1.3,0-1.3,0.9-2.5,0.9c-1.3,0-1.3-0.9-2.5-0.9c-0.6,0-0.9,0.2-1.3,0.5V26
	c0.3-0.2,0.6-0.5,1.3-0.5c1.3,0,1.3,0.9,2.5,0.9s1.3-0.9,2.5-0.9c1.2,0,1.3,0.8,2.5,0.9c0,0,0.1,0,0.2,0c0.1,0,0.2,0,0.2,0
	c1.3-0.1,1.4-0.9,2.5-0.9c1.3,0,1.3,0.9,2.5,0.9c1.3,0,1.3-0.9,2.5-0.9c0.6,0,0.9,0.2,1.3,0.5v-0.7c-0.3-0.2-0.6-0.5-1.3-0.5
	C24.5,24.8,24.5,25.7,23.2,25.7z M25.7,21.6c-1.3,0-1.3,0.9-2.5,0.9c-0.8,0-1.1-0.4-1.6-0.7c0,0.1,0,0.2,0,0.2c0,0.3,0,0.1-0.1,0.5
	c0.5,0.3,0.8,0.8,1.7,0.8c1.3,0,1.3-0.9,2.5-0.9c1.3,0,1.3,0.9,2.5,0.9v-0.7C27,22.6,27,21.6,25.7,21.6z"/>
</svg>
